<?xml version="1.0" encoding="UTF-8"?>
<svg width="65px" height="65px" viewBox="0 0 65 65" version="1.1" xmlns="http://www.w3.org/2000/svg" xmlns:xlink="http://www.w3.org/1999/xlink">
    <!-- Generator: Sketch 49.3 (51167) - http://www.bohemiancoding.com/sketch -->
    <title>Page 1</title>
    <desc>Created with Sketch.</desc>
    <defs>
        <polygon id="path-1" points="0 0 65 0 65 65 0 65"></polygon>
    </defs>
    <g id="Page-1" stroke="none" stroke-width="1" fill="none" fill-rule="evenodd">
        <g id="Desktop-HD-Copy-13" transform="translate(-150.000000, -484.000000)">
            <g id="Group-23" transform="translate(0.000000, 424.000000)">
                <g id="Page-1" transform="translate(150.000000, 60.000000)">
                    <mask id="mask-2" fill="white">
                        <use xlink:href="#path-1"></use>
                    </mask>
                    <g id="Clip-2"></g>
                    <path d="M56.7579066,29.0861428 L56.4676911,29.0861428 C56.4673103,29.0861428 56.4668025,29.0862706 56.4664216,29.0862706 C56.4660407,29.0862706 56.4655329,29.0861428 56.4650251,29.0861428 L48.0812758,29.0861428 L48.0787368,29.0861428 L47.7911873,29.0861428 L47.7911873,27.5299766 L56.7579066,27.5299766 L56.7579066,29.0861428 Z M49.7367483,32.227738 L49.004481,32.227738 L49.004481,30.944904 L55.5441051,30.944904 L55.5441051,32.2276102 L54.8119648,32.2276102 C54.3019929,32.2276102 53.8885057,32.6436783 53.8885057,33.156863 L53.8885057,53.6915353 C53.8885057,54.20472 54.3019929,54.6210436 54.8119648,54.6210436 L55.5441051,54.6210436 L55.5441051,56.0158173 L49.004481,56.0158173 L49.004481,54.6210436 L49.7367483,54.6210436 C50.2467201,54.6210436 50.6600804,54.2048478 50.6600804,53.6916631 L50.6600804,33.1569908 C50.6600804,32.6438061 50.2467201,32.227738 49.7367483,32.227738 Z M56.4648982,57.8745785 C56.5674765,57.8745785 56.6654845,57.8569442 56.7577797,57.826148 L56.7577797,59.3186772 L47.7910603,59.3186772 L47.7910603,57.8280647 C47.8815781,57.8579664 47.9780627,57.8745785 48.0786098,57.8745785 L56.4648982,57.8745785 Z M61.879715,61.1819108 L61.8771759,63.1412388 C61.8771759,63.1412388 61.8766681,63.1413666 61.8752716,63.1413666 L3.12034487,63.1370219 L3.12478824,61.1775662 L61.879715,61.1819108 Z M8.24228019,57.8271702 C8.33355969,57.8575831 8.43093296,57.8747063 8.53236873,57.8747063 L16.918911,57.8747063 C17.0203468,57.8747063 17.11772,57.8575831 17.2089995,57.8271702 L17.2089995,59.3186772 L8.24228019,59.3186772 L8.24228019,57.8271702 Z M8.53249569,29.0861428 L8.24240715,29.0861428 L8.24240715,27.5299766 L17.2091265,27.5299766 L17.2091265,29.0861428 L17.2089995,29.0861428 L16.918911,29.0861428 L8.53249569,29.0861428 Z M28.0166703,57.8287037 C28.1068072,57.858222 28.202784,57.8747063 28.3026963,57.8747063 L36.6891116,57.8747063 C36.7919439,57.8747063 36.8908406,57.8568164 36.9833896,57.8256368 L36.9833896,59.3186772 L28.0166703,59.3186772 L28.0166703,57.8287037 Z M28.3067588,29.0861428 L28.3026963,29.0861428 L28.0166703,29.0861428 L28.0166703,27.5299766 L36.9833896,27.5299766 L36.9833896,29.0861428 L36.6933011,29.0861428 C36.6926663,29.0861428 36.6917776,29.0862706 36.6912698,29.0862706 C36.690635,29.0862706 36.6898733,29.0861428 36.6892386,29.0861428 L28.3067588,29.0861428 Z M35.0377016,54.6209159 L35.7699689,54.6209159 L35.7699689,56.0156895 L29.2302179,56.0156895 L29.2302179,54.6209159 L29.9624852,54.6209159 C30.472457,54.6209159 30.8858173,54.20472 30.8858173,53.6915353 L30.8858173,33.1569908 C30.8858173,32.6438061 30.472457,32.2276102 29.9624852,32.2276102 L29.2302179,32.2276102 L29.2302179,30.944904 L35.7699689,30.944904 L35.7699689,32.2276102 L35.0377016,32.2276102 C34.5277298,32.2276102 34.1143695,32.6436783 34.1143695,33.156863 L34.1143695,53.6915353 C34.1143695,54.20472 34.5277298,54.6209159 35.0377016,54.6209159 Z M17.8422431,55.9368462 L17.8422431,54.3010699 C17.8422431,53.4525773 17.1564408,52.7624103 16.3134702,52.7624103 L16.1865168,52.7624103 L16.1865168,34.086627 L16.3134702,34.086627 C17.1564408,34.086627 17.8422431,33.3962044 17.8422431,32.5478395 L17.8422431,30.9120633 C18.5343931,30.7654938 19.0556638,30.1459919 19.0556638,29.4062444 L19.0556638,27.5299766 L26.170006,27.5299766 L26.170006,29.4062444 C26.170006,30.1459919 26.6912767,30.7654938 27.3834267,30.9120633 L27.3834267,32.5478395 C27.3834267,33.3962044 28.069229,34.086627 28.9121996,34.086627 L29.039153,34.086627 L29.039153,52.7624103 L28.9121996,52.7624103 C28.069229,52.7624103 27.3834267,53.4525773 27.3834267,54.3010699 L27.3834267,55.9368462 C26.6912767,56.0834156 26.170006,56.7029175 26.170006,57.4426651 L26.170006,59.318805 L19.0556638,59.318805 L19.0556638,57.4426651 C19.0556638,56.7029175 18.5343931,56.0834156 17.8422431,55.9368462 Z M37.6167602,55.9368462 L37.6167602,54.3010699 C37.6167602,53.4525773 36.9309578,52.7624103 36.0879872,52.7624103 L35.9610338,52.7624103 L35.9610338,34.086627 L36.0879872,34.086627 C36.9309578,34.086627 37.6167602,33.3962044 37.6167602,32.5478395 L37.6167602,30.9120633 C38.3090371,30.7654938 38.8301809,30.1459919 38.8301809,29.4062444 L38.8301809,27.5299766 L45.944396,27.5299766 L45.944396,29.4062444 C45.944396,30.1459919 46.4656667,30.7654938 47.1578167,30.9120633 L47.1578167,32.5478395 C47.1578167,33.3962044 47.843619,34.086627 48.6865897,34.086627 L48.8135431,34.086627 L48.8135431,52.7624103 L48.6865897,52.7624103 C47.843619,52.7624103 47.1578167,53.4525773 47.1578167,54.3010699 L47.1578167,55.9368462 C46.4656667,56.0834156 45.944396,56.7029175 45.944396,57.4426651 L45.944396,59.318805 L38.8301809,59.318805 L38.8301809,57.4426651 C38.8301809,56.7029175 38.3089102,56.0834156 37.6167602,55.9368462 Z M8.24228019,23.3968974 L56.7576527,23.3968974 L56.7576527,25.6710877 L46.8677282,25.6710877 L37.9067218,25.6710877 L27.0933381,25.6710877 L18.1323317,25.6710877 L8.24228019,25.6710877 L8.24228019,23.3968974 Z M32.148369,7.49289933 C32.3620316,7.35450813 32.6380283,7.35463592 32.8515639,7.49289933 L54.5393958,21.538264 L10.4606641,21.538264 L32.148369,7.49289933 Z M64.201439,20.1783756 L42.7149552,6.26347948 C42.2859796,5.98567481 41.7146893,6.11064857 41.4388195,6.54217865 C41.1629498,6.9738365 41.2868563,7.54886918 41.7157049,7.82667385 L62.8881059,21.5381362 L57.9524113,21.5381362 L33.8508142,5.92970496 C33.0303143,5.39837477 31.9698725,5.39850256 31.1492457,5.92970496 L7.04764861,21.5381362 L2.11195394,21.5381362 L32.4988874,1.85770694 L36.802481,4.64469862 C37.2313296,4.9223755 37.802493,4.79765731 38.0786167,4.36599945 C38.3544864,3.93434159 38.2305799,3.35930892 37.8017313,3.08150425 L33.4981376,0.294512566 C32.8918082,-0.0981708555 32.1083787,-0.0981708555 31.5020492,0.294512566 L0.798620912,20.1783756 C0.144810852,20.6018552 -0.147181991,21.3908001 0.0720665477,22.141665 C0.291315087,22.8925298 0.960994323,23.3970252 1.73845701,23.3970252 L6.39561589,23.3970252 L6.39561589,26.6005961 L6.39561589,29.4062444 C6.39561589,30.1459919 6.91688659,30.7654938 7.60903658,30.9120633 L7.60903658,32.5478395 C7.60903658,33.3962044 8.2948389,34.086627 9.13780955,34.086627 L9.26476296,34.086627 L9.26476296,45.4738073 C9.26476296,45.9871198 9.67812326,46.4031878 10.1880951,46.4031878 C10.698067,46.4031878 11.1114273,45.9871198 11.1114273,45.4738073 L11.1114273,33.1571186 C11.1114273,32.6439339 10.698067,32.2278658 10.1880951,32.2278658 L9.45582784,32.2278658 L9.45582784,30.944904 L15.9955788,30.944904 L15.9955788,32.2276102 L15.2633116,32.2276102 C14.7533397,32.2276102 14.3399794,32.6436783 14.3399794,33.156863 L14.3399794,53.6915353 C14.3399794,54.20472 14.7533397,54.6209159 15.2633116,54.6209159 L15.9955788,54.6209159 L15.9955788,56.0156895 L9.45582784,56.0156895 L9.45582784,54.6209159 L10.1880951,54.6209159 C10.698067,54.6209159 11.1114273,54.20472 11.1114273,53.6915353 L11.1114273,51.3160114 C11.1114273,50.8026989 10.698067,50.386503 10.1880951,50.386503 C9.67812326,50.386503 9.26476296,50.8026989 9.26476296,51.3160114 L9.26476296,52.7621547 L9.13780955,52.7621547 C8.2948389,52.7621547 7.60903658,53.4523217 7.60903658,54.3008143 L7.60903658,55.9365906 C6.91675964,56.08316 6.39561589,56.7026619 6.39561589,57.4424095 L6.39561589,59.3185494 L3.12478824,59.3185494 C2.10408283,59.3185494 1.27368057,60.1543914 1.27368057,61.1817831 L1.27368057,63.1367664 C1.27368057,64.1641581 2.10408283,65 3.12478824,65 L61.8752716,65 C62.895977,65 63.7263793,64.1641581 63.7263793,63.1367664 L63.7263793,61.1817831 C63.7263793,60.1543914 62.895977,59.3185494 61.8752716,59.3185494 L58.604444,59.3185494 L58.604444,57.4424095 C58.604444,56.7026619 58.0830463,56.08316 57.3910233,55.9365906 L57.3910233,54.3008143 C57.3910233,53.4523217 56.705221,52.7621547 55.8622503,52.7621547 L55.7352969,52.7621547 L55.7352969,34.0863714 L55.8622503,34.0863714 C56.705221,34.0863714 57.3910233,33.3960766 57.3910233,32.547584 L57.3910233,30.9118077 C58.0831733,30.7652382 58.604444,30.1457364 58.604444,29.4059888 L58.604444,26.6003405 L58.604444,23.3967696 L63.2616029,23.3967696 C64.0390655,23.3967696 64.7087448,22.8922743 64.9278664,22.1414094 C65.1472419,21.3908001 64.855249,20.6017275 64.201439,20.1783756 Z" id="Fill-1" fill="#888888" mask="url(#mask-2)"></path>
                </g>
            </g>
        </g>
    </g>
</svg>