<?xml version="1.0" encoding="UTF-8"?>
<svg width="105px" height="105px" viewBox="0 0 105 105" version="1.1" xmlns="http://www.w3.org/2000/svg" xmlns:xlink="http://www.w3.org/1999/xlink">
    <!-- Generator: Sketch 49.3 (51167) - http://www.bohemiancoding.com/sketch -->
    <title>bar-chart</title>
    <desc>Created with Sketch.</desc>
    <defs></defs>
    <g id="Page-1" stroke="none" stroke-width="1" fill="none" fill-rule="evenodd">
        <g id="Desktop-HD-Copy-13" transform="translate(-150.000000, -1759.000000)">
            <g id="Group-6" transform="translate(0.000000, 1630.000000)">
                <g id="Group-15">
                    <g id="Group-10" transform="translate(150.000000, 116.000000)">
                        <g id="Group-22" transform="translate(0.000000, 13.000000)">
                            <g id="bar-chart">
                                <circle id="Path" fill="#E94280" cx="52.5" cy="52.5" r="52.5"></circle>
                                <path d="M82.2048583,82.4623185 L79.4237321,82.4623185 L79.4237321,42.0543085 C79.4237321,40.1735059 77.8945121,38.6434109 76.0150678,38.6434109 L69.7987758,38.6434109 C67.9192047,38.6434109 66.3901115,40.1736328 66.3901115,42.0543085 L66.3901115,82.4623185 L59.3283106,82.4623185 L59.3283106,60.3622848 C59.3283106,58.4814822 57.7992174,56.9513871 55.9196463,56.9513871 L49.7033543,56.9513871 C47.8237832,56.9513871 46.29469,58.481609 46.29469,60.3622848 L46.29469,82.4623185 L39.2328891,82.4623185 L39.2328891,71.0168674 C39.2328891,69.1360648 37.7036691,67.6059697 35.8242248,67.6059697 L29.607806,67.6059697 C27.7282349,67.6059697 26.1991417,69.1361917 26.1991417,71.0168674 L26.1991417,82.4623185 L23.2680099,82.4623185 C22.567688,82.4623185 22,83.0303785 22,83.7311593 C22,84.43194 22.567688,85 23.2680099,85 L82.2048583,85 C82.9051802,85 83.4728682,84.43194 83.4728682,83.7311593 C83.4728682,83.0303785 82.9051802,82.4623185 82.2048583,82.4623185 Z M36.6966156,82.4623185 L28.7350348,82.4623185 L28.7350348,71.0168674 C28.7350348,70.5353424 29.1264695,70.1436512 29.6076792,70.1436512 L35.8239712,70.1436512 C36.3051809,70.1436512 36.6966156,70.5353424 36.6966156,71.0168674 L36.6966156,82.4623185 Z M56.7921639,82.4623185 L48.8305831,82.4623185 L48.8305831,60.3622848 C48.8305831,59.8807597 49.2220178,59.4890686 49.7032275,59.4890686 L55.9195195,59.4890686 C56.4006024,59.4890686 56.7921639,59.8807597 56.7921639,60.3622848 L56.7921639,82.4623185 Z M76.8877122,82.4623185 L68.9261314,82.4623185 L68.9261314,42.0543085 C68.9261314,41.5727835 69.3175661,41.1810923 69.7987758,41.1810923 L76.0150678,41.1810923 C76.4962775,41.1810923 76.8877122,41.5727835 76.8877122,42.0543085 L76.8877122,82.4623185 Z" id="Shape" fill="#F6F6F6" fill-rule="nonzero"></path>
                                <path d="M79.43883,21.3322169 C79.4565079,20.9864942 79.3352877,20.634944 79.0721389,20.370933 C78.8089901,20.1069219 78.458588,19.9851779 78.1139943,20.0030404 C78.0936647,20.0021536 78.0735876,20 78.0528791,20 L70.4134818,20 C69.7160869,20 69.1507715,20.5671677 69.1507715,21.2668476 C69.1507715,21.9665275 69.7160869,22.5336952 70.4134818,22.5336952 L75.1305887,22.5336952 L62.6478134,35.0574973 L57.9404294,30.3346894 C57.7036712,30.0971555 57.3824377,29.9636298 57.0475669,29.9636298 C56.7126962,29.9636298 56.3914627,30.0971555 56.1547045,30.3346894 L33.4550876,53.108809 C32.9619992,53.6035129 32.9619992,54.4056809 33.4550876,54.9005115 C33.7016949,55.1476735 34.0248225,55.2713178 34.3479501,55.2713178 C34.6710776,55.2713178 34.9943315,55.1476735 35.2408125,54.9002582 L57.0475669,33.0219266 L61.754951,37.7447345 C62.2480393,38.2394385 63.0475875,38.2394385 63.5408021,37.7447345 L76.9164399,24.3253978 L76.9164399,28.6086096 C76.9164399,29.3082895 77.4817553,29.8754572 78.1791502,29.8754572 C78.8765451,29.8754572 79.4418605,29.3082895 79.4418605,28.6086096 L79.4418605,21.3935324 C79.4418605,21.3728828 79.4397139,21.3527399 79.43883,21.3322169 Z" id="Shape" fill="#F6F6F6" fill-rule="nonzero"></path>
                                <circle id="Oval" fill="#F6F6F6" fill-rule="nonzero" cx="29.8100775" cy="58.5465116" r="1.25968992"></circle>
                            </g>
                        </g>
                    </g>
                </g>
            </g>
        </g>
    </g>
</svg>