<?xml version="1.0" encoding="UTF-8"?>
<svg width="105px" height="105px" viewBox="0 0 105 105" version="1.1" xmlns="http://www.w3.org/2000/svg" xmlns:xlink="http://www.w3.org/1999/xlink">
    <!-- Generator: Sketch 49.3 (51167) - http://www.bohemiancoding.com/sketch -->
    <title>002-box</title>
    <desc>Created with Sketch.</desc>
    <defs></defs>
    <g id="Page-1" stroke="none" stroke-width="1" fill="none" fill-rule="evenodd">
        <g id="Desktop-HD-Copy-13" transform="translate(-830.000000, -1759.000000)">
            <g id="Group-6" transform="translate(0.000000, 1630.000000)">
                <g id="Group-15">
                    <g id="Group-10" transform="translate(150.000000, 116.000000)">
                        <g id="Group-24" transform="translate(680.000000, 13.000000)">
                            <g id="002-box">
                                <circle id="Path-Copy" fill="#E94280" cx="52.5" cy="52.5" r="52.5"></circle>
                                <path d="M82.5282404,34.342071 L52.9487413,20.0946435 C52.6864972,19.9684522 52.3811184,19.9684522 52.1190016,20.0946435 L22.5393753,34.342071 C22.2095662,34.5008892 22,34.8341408 22,35.1995115 L22,69.800425 C22,70.1657957 22.2095662,70.4990474 22.5393753,70.6578656 L52.1188744,84.9052931 C52.2499328,84.9683887 52.3919339,85 52.5338078,85 C52.6756817,85 52.8175556,84.9683887 52.9487413,84.9052931 L82.5282404,70.6578656 C82.8580495,70.4990474 83.0676157,70.1657957 83.0676157,69.800425 L83.0676157,35.1996385 C83.0676157,34.8340138 82.8579222,34.5010161 82.5282404,34.342071 Z M52.5338078,22.0094756 L79.9182696,35.1995115 L71.980075,39.023082 C71.9298148,38.9848692 71.8767552,38.9495762 71.8184788,38.9215196 L44.6200436,25.8212394 L52.5338078,22.0094756 Z M42.4648327,26.8978009 L69.809468,40.0686669 L64.2089481,42.7662912 L36.8756373,29.6007572 L42.4648327,26.8978009 Z M70.4492366,41.8749542 L70.4492366,51.8466046 L65.2179706,54.3663678 L65.2179706,44.3947174 L70.4492366,41.8749542 Z M81.1589982,69.2029842 L53.4881166,82.5307641 L53.4881166,50.0445068 L60.0884975,46.8653497 C60.5631071,46.6367074 60.7621122,46.0675771 60.5329509,45.5939154 C60.3037896,45.1205077 59.7333674,44.9216993 59.2586306,45.1504686 L52.5338078,48.3896744 L49.8877006,47.1150663 C49.4129638,46.88617 48.8425416,47.0849784 48.6133803,47.5585131 C48.384219,48.0320478 48.5832241,48.6013051 49.0578337,48.8299474 L51.5794991,50.0445068 L51.5794991,82.5307641 L23.9086175,69.2027303 L23.9086175,36.7164729 L44.9797544,46.8657306 C45.1134848,46.9302227 45.2548498,46.9606914 45.3939244,46.9606914 C45.7486727,46.9606914 46.0894246,46.7623909 46.2539474,46.4222838 C46.4831087,45.9487491 46.2841035,45.3794918 45.809494,45.1508495 L25.1493461,35.1995115 L34.6294491,30.633266 L63.29612,44.4410552 C63.300319,44.4468951 63.3050269,44.4521001 63.3093531,44.457813 L63.3093531,55.8834562 C63.3093531,56.2111219 63.4782021,56.5156821 63.7563513,56.6899886 C63.9108221,56.7867268 64.0870511,56.8356037 64.2637891,56.8356037 C64.4052813,56.8356037 64.5471552,56.8042463 64.6785953,56.7408967 L71.8184788,53.3018669 C72.1482879,53.1430487 72.3578541,52.809924 72.3578541,52.4444263 L72.3578541,40.9558145 L81.1589982,36.7165999 L81.1589982,69.2029842 Z" id="Shape" fill="#FFFFFF" fill-rule="nonzero"></path>
                                <path d="M31.8700738,65.6387519 L27.5322238,63.5810778 C27.057686,63.3558069 26.4877829,63.5514665 26.258779,64.0175011 C26.0297752,64.4835358 26.2286436,65.0437769 26.7029271,65.2687979 L31.0407771,67.326472 C31.1744156,67.3899427 31.3156834,67.4199288 31.4546625,67.4199288 C31.8091671,67.4199288 32.1496849,67.224769 32.3140946,66.8900487 C32.5432257,66.4238891 32.3443572,65.8638979 31.8700738,65.6387519 Z" id="Shape" fill="#FFFFFF" fill-rule="nonzero"></path>
                                <path d="M35.8052491,63.0357687 L27.5249413,58.957693 C27.0530276,58.7252979 26.4859976,58.9271113 26.258199,59.4085472 C26.0305269,59.8898541 26.2283487,60.4684546 26.7001359,60.7008497 L34.9804437,64.7789254 C35.1133789,64.844347 35.2539032,64.8754448 35.3921507,64.8754448 C35.7447895,64.8754448 36.083515,64.6738895 36.2470595,64.3282002 C36.474858,63.8466353 36.2770363,63.2680347 35.8052491,63.0357687 Z" id="Shape" fill="#FFFFFF" fill-rule="nonzero"></path>
                            </g>
                        </g>
                    </g>
                </g>
            </g>
        </g>
    </g>
</svg>