<?xml version="1.0" encoding="UTF-8"?>
<svg width="105px" height="105px" viewBox="0 0 105 105" version="1.1" xmlns="http://www.w3.org/2000/svg" xmlns:xlink="http://www.w3.org/1999/xlink">
    <!-- Generator: Sketch 49.3 (51167) - http://www.bohemiancoding.com/sketch -->
    <title>Group 48</title>
    <desc>Created with Sketch.</desc>
    <defs></defs>
    <g id="Page-1" stroke="none" stroke-width="1" fill="none" fill-rule="evenodd">
        <g id="Desktop-HD-Copy-13" transform="translate(-490.000000, -1979.000000)">
            <g id="Group-6" transform="translate(0.000000, 1630.000000)">
                <g id="Group-15">
                    <g id="Group-10" transform="translate(150.000000, 116.000000)">
                        <g id="Group-28" transform="translate(340.000000, 233.000000)">
                            <g id="Group-12">
                                <g id="Group-48">
                                    <circle id="Path-Copy-4" fill="#E94280" cx="52.5" cy="52.5" r="52.5"></circle>
                                    <g id="001-credit-card" transform="translate(20.000000, 20.000000)" fill="#FFFFFF" fill-rule="nonzero">
                                        <path d="M50.2777529,44.1245039 C49.974251,44.0233366 49.5695817,44.0233366 49.2660798,44.0233366 C46.3322276,44.0233366 43.8030447,46.1478502 43.2972082,49.0817023 C42.9937062,50.7003794 43.3983755,52.3190564 44.3088813,53.6342315 C45.2193872,54.9494066 46.6357296,55.8599125 48.2544066,56.1634144 C48.5579086,56.2645817 48.9625778,56.2645817 49.2660798,56.2645817 C52.1999319,56.2645817 54.7291148,54.1400681 55.2349514,51.206216 C55.7407879,47.8676946 53.6162743,44.7315078 50.2777529,44.1245039 Z M53.2116051,50.8015467 C52.9081031,52.7237257 51.1882588,54.1400681 49.2660798,54.1400681 C49.0637451,54.1400681 48.7602432,54.1400681 48.5579086,54.0389008 C47.5462354,53.8365661 46.5345623,53.2295623 45.9275584,52.4202237 C45.3205545,51.5097179 45.1182198,50.4980447 45.2193872,49.3852043 C45.5228891,47.4630253 47.2427335,46.0466829 49.1649125,46.0466829 C49.3672471,46.0466829 49.670749,46.0466829 49.8730837,46.1478502 C52.0987646,46.5525195 53.6162743,48.6770331 53.2116051,50.8015467 Z" id="Shape"></path>
                                        <path d="M37.4295039,41.898823 C37.0248346,41.7976556 36.6201654,41.7976556 36.3166634,41.7976556 C33.3828113,41.7976556 30.8536284,43.9221693 30.3477918,46.8560214 C30.0442899,48.4746984 30.4489591,50.0933755 31.359465,51.4085506 C32.2699708,52.7237257 33.6863132,53.6342315 35.3049903,53.9377335 C35.6084922,54.0389008 36.0131615,54.0389008 36.3166634,54.0389008 C39.2505156,54.0389008 41.7796984,51.9143872 42.285535,48.980535 C42.8925389,45.6420136 40.666858,42.5058268 37.4295039,41.898823 Z M40.2621887,48.5758658 C39.8575195,50.7003794 37.7330058,52.2178891 35.6084922,51.8132198 C34.5968191,51.6108852 33.5851459,51.0038813 32.978142,50.1945428 C32.3711381,49.284037 32.1688035,48.2723638 32.2699708,47.1595233 C32.5734728,45.2373444 34.2933171,43.8210019 36.2154961,43.8210019 C36.4178307,43.8210019 36.7213327,43.8210019 36.9236673,43.9221693 C39.1493482,44.2256712 40.666858,46.3501848 40.2621887,48.5758658 Z" id="Shape"></path>
                                        <path d="M54.0209436,35.0194455 L10.4178307,27.3307296 C9.91199416,27.2295623 9.30499027,27.6342315 9.20382296,28.1400681 C9.10265564,28.6459047 9.5073249,29.2529086 10.0131615,29.3540759 L53.6162743,37.0427918 C53.7174416,37.0427918 53.7174416,37.0427918 53.8186089,37.0427918 C54.3244455,37.0427918 54.7291148,36.7392899 54.8302821,36.2334533 C54.9314494,35.6264494 54.5267802,35.1206128 54.0209436,35.0194455 Z" id="Shape"></path>
                                        <path d="M59.0793093,35.828784 L57.055963,35.5252821 C56.5501265,35.4241148 55.9431226,35.828784 55.8419553,36.3346206 C55.7407879,36.9416245 56.0442899,37.4474611 56.6512938,37.5486284 L58.6746401,37.8521304 C58.7758074,37.8521304 58.7758074,37.8521304 58.8769747,37.8521304 C59.3828113,37.8521304 59.7874805,37.5486284 59.8886479,37.0427918 C59.9898152,36.5369553 59.5851459,35.9299514 59.0793093,35.828784 Z" id="Shape"></path>
                                        <path d="M12.8458463,35.9299514 L10.7213327,35.6264494 C10.2154961,35.5252821 9.60849222,35.828784 9.60849222,36.4357879 C9.5073249,36.9416245 9.91199416,37.5486284 10.4178307,37.6497957 L12.441177,37.9532977 C12.5423444,37.9532977 12.5423444,37.9532977 12.6435117,37.9532977 C13.1493482,37.9532977 13.5540175,37.6497957 13.6551848,37.1439591 C13.7563521,36.6381226 13.3516829,36.0311187 12.8458463,35.9299514 Z" id="Shape"></path>
                                        <path d="M19.7252237,37.1439591 L17.7018774,36.8404572 C17.0948735,36.7392899 16.589037,37.1439591 16.4878696,37.6497957 C16.3867023,38.1556323 16.7913716,38.7626362 17.2972082,38.8638035 L19.3205545,39.1673054 C19.4217218,39.1673054 19.4217218,39.1673054 19.5228891,39.1673054 C20.0287257,39.1673054 20.4333949,38.8638035 20.5345623,38.3579669 C20.6357296,37.8521304 20.2310603,37.2451265 19.7252237,37.1439591 Z" id="Shape"></path>
                                        <path d="M11.8341732,40.9883171 L9.81082685,40.6848152 C9.20382296,40.5836479 8.59681907,40.8871498 8.59681907,41.4941537 C8.49565175,41.9999903 8.90032101,42.6069942 9.40615759,42.7081615 L11.4295039,43.0116634 C11.5306712,43.0116634 11.5306712,43.0116634 11.6318385,43.0116634 C12.1376751,43.0116634 12.5423444,42.7081615 12.6435117,42.2023249 C12.744679,41.6964883 12.3400097,41.0894844 11.8341732,40.9883171 Z" id="Shape"></path>
                                        <path d="M18.7135506,42.2023249 L16.6902043,41.898823 C16.0832004,41.7976556 15.5773638,42.2023249 15.4761965,42.7081615 C15.3750292,43.2139981 15.7796984,43.8210019 16.285535,43.9221693 L18.3088813,44.2256712 C18.4100486,44.2256712 18.4100486,44.2256712 18.511216,44.2256712 C19.0170525,44.2256712 19.4217218,43.9221693 19.5228891,43.4163327 C19.6240564,42.9104961 19.2193872,42.3034922 18.7135506,42.2023249 Z" id="Shape"></path>
                                        <path d="M64.6435117,25.7120525 C64.441177,25.5097179 64.2388424,25.3073833 63.9353405,25.3073833 L61.9119942,25.0038813 L62.8225,14.6848152 C63.0248346,14.3813132 62.9236673,14.0778113 62.7213327,13.8754767 C62.5189981,13.673142 62.3166634,13.5719747 62.0131615,13.5719747 L60.1921498,13.5719747 L58.0676362,0.824892996 C57.9664689,0.31905642 57.4606323,-0.0856128405 56.9547957,0.0155544747 L1.00927043,9.12061284 C0.705768482,9.12061284 0.503433852,9.32294747 0.301099222,9.5252821 C0.0987645914,9.72761673 0.0987645914,10.132286 0.0987645914,10.3346206 L4.24662451,30.8715856 L0.0987645914,52.7237257 C-0.00240272374,53.2295623 0.301099222,53.7353988 0.806935798,53.9377335 L7.78748054,55.6575778 C8.29331712,55.7587451 8.90032101,55.4552432 9.00148833,54.9494066 C9.20382296,54.3424027 8.7991537,53.8365661 8.29331712,53.6342315 L2.32444553,52.1167218 L8.59681907,18.7315078 L62.6201654,27.1283949 L55.8419553,62.7392899 L12.441177,54.44357 C11.9353405,54.3424027 11.3283366,54.747072 11.2271693,55.2529086 C11.1260019,55.7587451 11.5306712,56.365749 12.0365078,56.4669163 L56.4489591,64.9649708 C56.5501265,64.9649708 56.5501265,64.9649708 56.6512938,64.9649708 C57.1571304,64.9649708 57.5617996,64.6614689 57.6629669,64.1556323 L64.8458463,26.5213911 C64.9470136,26.2178891 64.8458463,26.0155545 64.6435117,25.7120525 Z M59.9898152,24.7003794 L7.88864786,16.6069942 C7.38281128,16.5058268 6.87697471,16.9104961 6.77580739,17.4163327 L6.37113813,19.439679 L6.37113813,14.1789786 L40.5656907,15.1906518 C41.0715272,15.1906518 41.5773638,14.6848152 41.5773638,14.1789786 C41.5773638,13.5719747 41.1726946,13.1673054 40.5656907,13.0661381 L5.35946498,12.1556323 C5.05596304,12.1556323 4.8536284,12.2567996 4.65129377,12.4591342 C4.44895914,12.6614689 4.34779183,12.8638035 4.34779183,13.1673054 L4.44895914,21.361858 L2.42561284,11.0427918 L56.3477918,2.24123541 L58.2699708,13.5719747 L45.8263911,13.1673054 C45.3205545,13.1673054 44.8147179,13.5719747 44.8147179,14.1789786 C44.8147179,14.7859825 45.2193872,15.1906518 45.8263911,15.1906518 L60.7991537,15.595321 L59.9898152,24.7003794 Z" id="Shape"></path>
                                    </g>
                                </g>
                            </g>
                        </g>
                    </g>
                </g>
            </g>
        </g>
    </g>
</svg>