<?xml version="1.0" encoding="UTF-8"?>
<svg width="105px" height="105px" viewBox="0 0 105 105" version="1.1" xmlns="http://www.w3.org/2000/svg" xmlns:xlink="http://www.w3.org/1999/xlink">
    <!-- Generator: Sketch 49.3 (51167) - http://www.bohemiancoding.com/sketch -->
    <title>Group 47</title>
    <desc>Created with Sketch.</desc>
    <defs>
        <circle id="path-1" cx="52.5" cy="52.5" r="52.5"></circle>
        <polygon id="path-3" points="0 0.0194968879 36.241972 0.0194968879 36.241972 51.9596273 0 51.9596273"></polygon>
        <polygon id="path-5" points="0.0692530043 0.0190661773 30.2636385 0.0190661773 30.2636385 29.4171108 0.0692530043 29.4171108"></polygon>
    </defs>
    <g id="Page-1" stroke="none" stroke-width="1" fill="none" fill-rule="evenodd">
        <g id="Desktop-HD-Copy-13" transform="translate(-150.000000, -1979.000000)">
            <g id="Group-6" transform="translate(0.000000, 1630.000000)">
                <g id="Group-15">
                    <g id="Group-10" transform="translate(150.000000, 116.000000)">
                        <g id="Group-25" transform="translate(0.000000, 233.000000)">
                            <g id="Group-13">
                                <g id="Group-26">
                                    <g id="Group-47">
                                        <mask id="mask-2" fill="white">
                                            <use xlink:href="#path-1"></use>
                                        </mask>
                                        <use id="Path-Copy-3" fill="#E94280" xlink:href="#path-1"></use>
                                        <g id="Page-1" mask="url(#mask-2)">
                                            <g transform="translate(23.000000, 25.000000)">
                                                <path d="M52.1503144,15.2147137 L53.864624,8.92452741 C53.9975012,8.43703281 53.6835222,7.94103682 53.1630327,7.81655202 C52.6430618,7.69255302 52.1133681,7.98621569 51.9804909,8.47383173 L51.9019314,8.7627579 C51.8957088,8.76263646 51.8897456,8.76190776 51.8833934,8.76190776 L47.7268666,8.76190776 C47.7206441,8.76190776 47.7145512,8.76263646 47.708199,8.7627579 L47.6296394,8.47383173 C47.4968919,7.98645858 46.9671982,7.69255302 46.4470976,7.81655202 C45.9267378,7.94103682 45.6124995,8.43703281 45.7456359,8.92452741 L47.4598159,15.2145922 C44.5589458,14.2955908 42.4640241,11.723067 42.4640241,8.69911885 C42.4638945,4.90688696 45.7571736,1.82172869 49.8050652,1.82172869 C53.8530864,1.82172869 57.1462358,4.9070084 57.1462358,8.6992403 C57.1462358,11.7233099 55.0513142,14.2958337 52.1503144,15.2147137 Z M48.2044465,10.5837579 L51.4055542,10.5837579 L50.0463182,15.5710438 C49.9659437,15.5734728 49.8859582,15.5767519 49.8050652,15.5767519 C49.7240425,15.5767519 49.644057,15.5734728 49.5636825,15.5710438 L48.2044465,10.5837579 Z M51.9502857,19.4082117 C51.9502857,19.4428245 51.9203397,19.4708792 51.8832637,19.4708792 L47.726737,19.4708792 C47.6897906,19.4708792 47.6595854,19.4428245 47.6595854,19.4082117 L47.6595854,17.1615344 C48.3488613,17.3148025 49.0665275,17.3984806 49.8050652,17.3984806 C50.5433436,17.3984806 51.2611394,17.314924 51.9502857,17.1615344 L51.9502857,19.4082117 Z M49.8051948,0 C44.6850818,0 40.5194805,3.9025072 40.5194805,8.6992403 C40.5194805,12.1215398 42.6405887,15.0873141 45.7151714,16.5066837 L45.7151714,19.4082117 C45.7151714,20.4473257 46.6176989,21.2926078 47.7268666,21.2926078 L48.832923,21.2926078 L48.832923,21.3552753 C48.832923,21.8583153 49.2681119,22.2661397 49.8051948,22.2661397 C50.3422778,22.2661397 50.7774666,21.8583153 50.7774666,21.3552753 L50.7774666,21.2926078 L51.8833934,21.2926078 C52.9926907,21.2926078 53.8949589,20.4473257 53.8949589,19.4082117 L53.8949589,16.5068051 C56.9696713,15.0874356 59.0909091,12.1215398 59.0909091,8.6992403 C59.0909091,3.9025072 54.9253078,0 49.8051948,0 Z" id="Fill-1" fill="#FFFFFF"></path>
                                                <g id="Group-5" stroke-width="1" fill="none" transform="translate(0.000000, 2.385658)">
                                                    <mask id="mask-4" fill="white">
                                                        <use xlink:href="#path-3"></use>
                                                    </mask>
                                                    <g id="Clip-4"></g>
                                                    <path d="M18.1208536,43.4065074 C15.0451689,43.4065074 12.2598738,41.7659302 10.8708182,39.1829835 L12.2467659,38.6028879 C13.3206025,38.1504062 14.014311,37.1341865 14.014311,36.0139273 L14.014311,33.8493037 C15.2845135,34.3363049 16.670292,34.6048833 18.1207276,34.6048833 C19.5711632,34.6048833 20.9569418,34.3363049 22.2271442,33.8493037 L22.2271442,36.0139273 C22.2271442,37.1340662 22.9209788,38.1504062 23.9946893,38.6028879 L25.3703849,39.1828632 C23.9825898,41.7686966 21.2078817,43.4065074 18.1208536,43.4065074 M8.96286776,24.0612886 L8.96286776,23.3067915 C8.96286776,22.9601535 9.16427514,22.6425021 9.50155057,22.4571554 C10.683401,21.8077803 12.2421025,20.6047706 12.9557249,18.5616267 C13.1208336,18.0889384 12.8531307,17.5781223 12.3578046,17.4205596 C11.8623526,17.2629968 11.3270728,17.518465 11.1620901,17.9911533 C10.6363891,19.4965391 9.45579908,20.4004202 8.55816245,20.8936758 C7.67615442,21.3782715 7.11717963,22.2530455 7.07621756,23.1960165 C6.32894325,21.6700633 5.93180017,19.9955681 5.93180017,18.2764501 C5.93180017,11.8625633 11.3997962,6.64458993 18.1208536,6.64458993 C24.8419111,6.64458993 30.3097811,11.8626836 30.3097811,18.2764501 C30.3097811,19.989915 29.9132682,21.6615236 29.1693969,23.185793 L29.1693969,22.3698344 C29.1693969,21.2705034 28.6796165,20.2334758 27.8255887,19.5248042 C25.9260827,17.948455 21.6267032,15.1976016 14.1734959,14.486284 C13.6540968,14.4360082 13.1907842,14.7984026 13.1388569,15.294184 C13.0869296,15.7899654 13.4659233,16.2319831 13.9854485,16.2815372 C20.9178702,16.9430602 24.855145,19.4504731 26.585005,20.8862186 C27.026009,21.252101 27.2788395,21.7929863 27.2788395,22.3698344 L27.2788395,24.0612886 C27.2788395,28.8801832 23.1705324,32.8007295 18.1207276,32.8007295 C13.0710489,32.8008498 8.96286776,28.8803035 8.96286776,24.0612886 M18.1208536,1.82365061 C20.9421954,1.82365061 23.2375841,3.58161801 23.2375841,5.74239279 C23.2375841,5.74780525 23.23708,5.75333799 23.23708,5.75875045 C21.6505242,5.16614609 19.9248235,4.84031592 18.1208536,4.84031592 C16.3168838,4.84031592 14.5913091,5.16614609 13.0047534,5.75875045 C13.0047534,5.75321771 13.0041232,5.74780525 13.0041232,5.74239279 C13.0041232,3.58161801 15.2995119,1.82365061 18.1208536,1.82365061 M33.2698898,40.5399477 L24.7588526,36.9526887 C24.3695238,36.7885107 24.1179537,36.4201025 24.1179537,36.0139273 L24.1179537,32.9125871 C26.2718026,31.5790769 27.9106638,29.5498851 28.6821372,27.160945 C30.9515623,24.7059729 32.2005905,21.5558002 32.2005905,18.2764501 C32.2005905,13.2706452 29.3167343,8.8960535 25.0516369,6.58457175 C25.1016737,6.30649152 25.1282675,6.02456243 25.1282675,5.74239279 C25.1282675,2.58680764 21.9849008,0.0194968879 18.1209797,0.0194968879 C14.2570586,0.0194968879 11.1135658,2.58680764 11.1135658,5.74239279 C11.1135658,6.02480298 11.1417981,6.30576986 11.1918349,6.58372981 C6.92585523,8.89497101 4.04124281,13.2700438 4.04124281,18.2764501 C4.04124281,21.5598896 5.28938878,24.7056121 7.55982213,27.1613058 C8.33129557,29.5501256 9.97015672,31.5790769 12.1238797,32.9125871 L12.1238797,36.0139273 C12.1238797,36.4201025 11.8723095,36.7885107 11.4829807,36.9526887 L2.97194357,40.5399477 C1.16646129,41.3008194 -1.26037157e-05,43.0094733 -1.26037157e-05,44.8928895 L-1.26037157e-05,51.0575625 C-1.26037157e-05,51.5557495 0.42322017,51.9596394 0.945266076,51.9596394 C1.46731198,51.9596394 1.89054476,51.5557495 1.89054476,51.0575625 L1.89054476,44.8928895 C1.89054476,43.7235573 2.6148803,42.6627149 3.73572874,42.1902672 L9.14020204,39.9123427 C10.8337633,43.1486337 14.2944916,45.2105408 18.1209797,45.2105408 C21.9615839,45.2105408 25.4107168,43.1533245 27.1031437,39.9129441 L32.5061046,42.1901469 C33.6270791,42.6625946 34.3514146,43.723437 34.3514146,44.8926489 L34.3514146,51.0574422 C34.3514146,51.5556292 34.7745214,51.9595191 35.2966933,51.9595191 C35.8188652,51.9595191 36.241972,51.5556292 36.241972,51.0574422 L36.241972,44.8926489 C36.2418459,43.0094733 35.075246,41.3008194 33.2698898,40.5399477" id="Fill-3" fill="#FFFFFF" mask="url(#mask-4)"></path>
                                                </g>
                                                <g id="Group-8" stroke-width="1" fill="none" transform="translate(34.610390, 2.385658)">
                                                    <mask id="mask-6" fill="white">
                                                        <use xlink:href="#path-5"></use>
                                                    </mask>
                                                    <g id="Clip-7"></g>
                                                    <path d="M26.2852728,0.0190661773 C25.7627229,0.0190661773 25.3395381,0.414277433 25.3395381,0.901759571 C25.3395381,1.38924171 25.7627229,1.78445296 26.2852728,1.78445296 C27.4359168,1.78445296 28.3720681,2.65808404 28.3720681,3.73202767 L28.3720681,18.8270262 C28.3720681,19.9009699 27.4359168,20.7746009 26.2852728,20.7746009 L16.1771336,20.7746009 C15.9772683,20.7746009 15.7824469,20.8336826 15.6209154,20.9434896 L6.60705437,27.0620848 L7.99741057,21.8713769 C8.06802544,21.6077458 8.00447206,21.3283439 7.82516075,21.114026 C7.64610163,20.8998257 7.37108196,20.7746009 7.07992175,20.7746009 L4.04739171,20.7746009 C2.89674775,20.7746009 1.96072253,19.9009699 1.96072253,18.8270262 L1.96072253,3.73214536 C1.96072253,2.65820173 2.89674775,1.78457066 4.04739171,1.78457066 C4.5698156,1.78457066 4.99312648,1.3893594 4.99312648,0.901877263 C4.99312648,0.414395125 4.5698156,0.0191838698 4.04739171,0.0191838698 C1.85379145,0.0191838698 0.0692530043,1.68476746 0.0692530043,3.73214536 L0.0692530043,18.8271439 C0.0692530043,20.8745218 1.85379145,22.5401054 4.04739171,22.5401054 L5.86862467,22.5401054 L4.47801627,27.7312841 C4.32821189,28.290441 4.56224972,28.8601901 5.07433357,29.1825497 C5.32299876,29.3390807 5.60495382,29.4171108 5.88627839,29.4171108 C6.18462618,29.4171108 6.48246958,29.3295476 6.73945724,29.1551274 L16.4845604,22.5399877 L26.2853989,22.5399877 C28.4788731,22.5399877 30.2636637,20.8744041 30.2636637,18.8270262 L30.2636637,3.73214536 C30.2635376,1.68476746 28.4788731,0.0190661773 26.2852728,0.0190661773" id="Fill-6" fill="#FFFFFF" mask="url(#mask-6)"></path>
                                                </g>
                                            </g>
                                        </g>
                                    </g>
                                </g>
                            </g>
                        </g>
                    </g>
                </g>
            </g>
        </g>
    </g>
</svg>