<?xml version="1.0" encoding="UTF-8"?>
<svg width="59px" height="46px" viewBox="0 0 59 46" version="1.1" xmlns="http://www.w3.org/2000/svg" xmlns:xlink="http://www.w3.org/1999/xlink">
    <!-- Generator: Sketch 49.3 (51167) - http://www.bohemiancoding.com/sketch -->
    <title>Group</title>
    <desc>Created with Sketch.</desc>
    <defs></defs>
    <g id="Page-1" stroke="none" stroke-width="1" fill="none" fill-rule="evenodd">
        <g id="Desktop-HD-Copy-13" transform="translate(-759.000000, -499.000000)" fill-rule="nonzero" stroke="#888888" stroke-width="2">
            <g id="Group" transform="translate(760.000000, 500.000000)">
                <path d="M15.2315353,37.956044 C10.0045643,37.6901099 5.84190871,33.410989 5.84190871,28.189011 L5.84190871,8.43736264 C5.84190871,7.13186813 6.88257261,6.06813187 8.15975104,6.06813187 C4.63568465,6.06813187 1.60829876,8.0989011 0.0709543568,11.0967033 L0.0709543568,28.189011 C0.0709543568,28.2615385 0.0709543568,28.3340659 0.0709543568,28.4065934 C3.00373444,33.9428571 8.68008299,37.7626374 15.2315353,37.956044 Z" id="Shape"></path>
                <path d="M8.15975104,6.06813187 L13.8834025,6.06813187 C15.4680498,6.06813187 16.7688797,4.73846154 16.7688797,3.11868132 C16.7688797,1.4989011 15.4680498,0.169230769 13.8834025,0.169230769 L8.15975104,0.169230769 C3.71327801,0.169230769 0.0709543568,3.86813187 0.0709543568,8.43736264 L0.0709543568,11.0967033 C1.60829876,8.0989011 4.6593361,6.06813187 8.15975104,6.06813187 Z" id="Shape"></path>
                <path d="M52.4116183,10.6615385 C51.3236515,4.69010989 46.2858921,0.169230769 40.2547718,0.169230769 L25.6145228,0.169230769 L25.6145228,28.1648352 C25.6145228,33.556044 21.1680498,37.9318681 15.7282158,37.9318681 C15.5626556,37.9318681 15.373444,37.9318681 15.2078838,37.9076923 C8.65643154,37.7142857 2.98008299,33.8945055 0.0709543568,28.3582418 C0.189211618,36.8923077 7.16639004,43.8065934 15.7282158,43.8065934 C24.3609959,43.8065934 31.3854772,36.7714286 31.3854772,28.1406593 L31.3854772,6.04395604 L40.2547718,6.04395604 C40.3020747,6.04395604 40.373029,6.04395604 40.420332,6.04395604 C40.5149378,6.04395604 40.633195,6.04395604 40.7278008,6.04395604 C45.1979253,6.06813187 49.313278,7.83296703 52.4116183,10.6615385 Z" id="Shape"></path>
                <path d="M56.8580913,28.6483516 C56.8107884,24.2 54.8950207,20.210989 51.8912863,17.4791209 C52.3643154,16.1010989 52.6244813,14.6263736 52.6244813,13.0791209 C52.6244813,12.2571429 52.553527,11.4351648 52.4116183,10.6615385 C49.313278,7.83296703 45.1979253,6.06813187 40.7514523,6.06813187 C40.6568465,6.06813187 40.5385892,6.06813187 40.4439834,6.06813187 C44.0153527,6.16483516 46.8771784,9.25934066 46.8771784,13.0549451 C46.8771784,13.5384615 46.8298755,13.9978022 46.7589212,14.432967 C46.593361,15.3516484 46.2385892,16.221978 45.7419087,16.9714286 C44.8904564,18.3736264 45.1033195,19.8967033 46.4278008,20.6703297 C47.2792531,21.1296703 48.059751,21.7582418 48.6983402,22.4835165 C50.1883817,24.1274725 51.0871369,26.3516484 51.0871369,28.7934066 C51.0871369,33.4835165 47.7049793,37.3758242 43.4004149,37.8835165 C49.5970954,37.6175824 54.7058091,33.9186813 56.8580913,28.6483516 Z" id="Shape"></path>
                <path d="M43.4004149,37.9076923 C43.0929461,37.9318681 42.7854772,37.956044 42.4543568,37.956044 L33.1120332,37.956044 C31.5273859,37.956044 30.226556,39.2857143 30.226556,40.9054945 C30.226556,42.5252747 31.5273859,43.8549451 33.1120332,43.8549451 L42.4307054,43.8549451 C50.3775934,43.8549451 56.8344398,37.1098901 56.8344398,28.8175824 C56.8344398,28.7450549 56.8344398,28.6967033 56.8344398,28.6483516 C54.7058091,33.9186813 49.5970954,37.6175824 43.4004149,37.9076923 Z" id="Shape"></path>
            </g>
        </g>
    </g>
</svg>