<?xml version="1.0" encoding="UTF-8"?>
<svg width="105px" height="105px" viewBox="0 0 105 105" version="1.1" xmlns="http://www.w3.org/2000/svg" xmlns:xlink="http://www.w3.org/1999/xlink">
    <!-- Generator: Sketch 52.1 (67048) - http://www.bohemiancoding.com/sketch -->
    <title>Group 19</title>
    <desc>Created with Sketch.</desc>
    <defs>
        <circle id="path-1" cx="52.5" cy="52.5" r="52.5"></circle>
        <polygon id="path-3" points="0 0.0370861753 18.2411246 0.0370861753 18.2411246 20.2392681 0 20.2392681"></polygon>
    </defs>
    <g id="Page-1" stroke="none" stroke-width="1" fill="none" fill-rule="evenodd">
        <g id="Desktop-HD-Copy-15" transform="translate(-150.000000, -1694.000000)">
            <g id="Group-14" transform="translate(0.000000, 1560.000000)">
                <g id="Group-6">
                    <g id="Group-15">
                        <g id="Group-16" transform="translate(150.000000, 134.000000)">
                            <g id="Group-3-Copy">
                                <g id="Group-19">
                                    <mask id="mask-2" fill="white">
                                        <use xlink:href="#path-1"></use>
                                    </mask>
                                    <use id="Path-Copy-4" fill="#E94280" xlink:href="#path-1"></use>
                                    <g id="Page-1" mask="url(#mask-2)">
                                        <g transform="translate(22.000000, 22.000000)">
                                            <path d="M46.3802499,10.833291 C45.7926043,10.833291 45.3163034,10.3483301 45.3163034,9.75 C45.3163034,9.15166992 45.7926043,8.66670898 46.3802499,8.66670898 C46.9678955,8.66670898 47.4441964,9.15166992 47.4441964,9.75 C47.4434483,10.3479492 46.9675214,10.8325293 46.3802499,10.833291 M31.484375,10.833291 C30.8967294,10.833291 30.4204285,10.3483301 30.4204285,9.75 C30.4204285,9.15166992 30.8967294,8.66670898 31.484375,8.66670898 C32.0720206,8.66670898 32.5483215,9.15166992 32.5483215,9.75 C32.5476981,10.3479492 32.0716466,10.8325293 31.484375,10.833291 M16.5885001,10.833291 C16.0008545,10.833291 15.5245536,10.3483301 15.5245536,9.75 C15.5245536,9.15166992 16.0008545,8.66670898 16.5885001,8.66670898 C17.1761457,8.66670898 17.6524466,9.15166992 17.6524466,9.75 C17.6518232,10.3479492 17.1758963,10.8325293 16.5885001,10.833291 M50.6361607,2.16670898 L47.4441964,2.16670898 L47.4441964,1.08329102 C47.4441964,0.484960937 46.9678955,0 46.3802499,0 C45.7926043,0 45.316428,0.484960937 45.316428,1.08329102 L45.316428,2.16658203 L32.5484462,2.16658203 L32.5484462,1.08329102 C32.5484462,0.484960937 32.0721453,0 31.4844997,0 C30.8968541,0 30.4205532,0.484960937 30.4205532,1.08329102 L30.4205532,2.16658203 L17.6528207,2.16658203 L17.6528207,1.08329102 C17.6528207,0.484960937 17.1763951,0 16.5887495,0 C16.0011039,0 15.5248029,0.484960937 15.5248029,1.08329102 L15.5248029,2.16658203 L12.3329633,2.16658203 C10.5707746,2.16848633 9.14274466,3.62248047 9.14087437,5.41658203 L9.14087437,26 C9.14087437,26.5983301 9.61717529,27.083291 10.2048209,27.083291 C10.7924665,27.083291 11.2687674,26.5982031 11.2687674,26 L11.2687674,5.41670898 C11.2695156,4.81875977 11.7454424,4.33417969 12.332714,4.33341797 L15.5246783,4.33341797 L15.5246783,6.69969727 C14.0589931,7.22731445 13.1799561,8.75329102 13.4426697,10.313418 C13.705508,11.8735449 15.0340384,13.0138379 16.5886248,13.0138379 C18.1432111,13.0138379 19.4717416,11.8735449 19.7345799,10.313418 C19.9974182,8.75329102 19.1182565,7.22731445 17.6525713,6.69969727 L17.6525713,4.33329102 L30.4204285,4.33329102 L30.4204285,6.69957031 C28.9547433,7.2271875 28.0755816,8.75316406 28.3385446,10.313291 C28.6012582,11.873418 29.9297886,13.0137109 31.484375,13.0137109 C33.0389614,13.0137109 34.3674918,11.873418 34.6304548,10.313291 C34.8931684,8.75316406 34.0140067,7.2271875 32.5483215,6.69957031 L32.5483215,4.33329102 L45.3161787,4.33329102 L45.3161787,6.69957031 C43.8504935,7.2271875 42.9713318,8.75316406 43.2342948,10.313291 C43.4970084,11.873418 44.8255389,13.0137109 46.3801252,13.0137109 C47.9348363,13.0137109 49.263242,11.873418 49.5260803,10.313291 C49.7889186,8.75316406 48.9097569,7.2271875 47.4440717,6.69957031 L47.4440717,4.33329102 L50.636036,4.33329102 C51.2234323,4.33405273 51.6992344,4.81863281 51.6999826,5.41658203 L51.6999826,61.75 C51.6992344,62.3479492 51.2234323,62.8325293 50.636036,62.833291 L12.3324646,62.833291 C11.745193,62.8325293 11.2692662,62.3479492 11.2685181,61.75 L11.2685181,46.583291 C11.2685181,45.9849609 10.7922171,45.5 10.2045715,45.5 C9.61692592,45.5 9.140625,45.9849609 9.140625,46.583291 L9.140625,61.75 C9.14249529,63.5441016 10.5705253,64.9980957 12.3325893,65 L50.6362854,65 C52.3983494,64.9980957 53.8263794,63.5441016 53.828125,61.75 L53.828125,5.41670898 C53.8262547,3.62260742 52.3983494,2.16861328 50.6361607,2.16670898" id="Fill-1" fill="#FFFFFF"></path>
                                            <path d="M16.2463014,23.3593749 C16.2701273,23.3593749 16.2944297,23.3581252 16.3182557,23.3564589 C16.6121484,23.3321591 16.8825726,23.160255 17.059361,22.8854585 L20.1090792,18.1458779 C20.3270864,17.8073464 20.3734278,17.3589795 20.2308296,16.9696266 C20.0882315,16.5802736 19.7782562,16.3092262 19.41777,16.2585437 C19.0572838,16.2078611 18.700848,16.3851806 18.4829599,16.7237121 L16.1361065,20.370494 L14.9318252,18.9669349 C14.5338131,18.5113476 13.8952784,18.514819 13.5008402,18.9744332 C13.1064021,19.4340474 13.1035429,20.1784558 13.4944072,20.6423745 L15.5275924,23.0122342 C15.7180806,23.2345431 15.976711,23.3595137 16.2463014,23.3593749" id="Fill-3" fill="#FFFFFF"></path>
                                            <path d="M13.4944056,32.8298938 L15.5275794,35.1997367 C15.7180666,35.4221829 15.9766955,35.5470137 16.2462844,35.5468749 C16.2701101,35.5468749 16.2944125,35.545764 16.3182382,35.5439589 C16.6121294,35.5196593 16.8825521,35.3477564 17.0593394,35.0729618 L20.1090406,30.3334149 C20.4459373,29.8100694 20.3550419,29.0673325 19.9060449,28.6746498 C19.4570478,28.2819671 18.8198271,28.3879137 18.4829304,28.9112592 L16.1360901,32.5580152 L14.9318155,31.1544661 C14.5338057,30.698882 13.8952745,30.7023534 13.5008386,31.1619643 C13.1064026,31.6217141 13.1035435,32.3659784 13.4944056,32.8298938" id="Fill-5" fill="#FFFFFF"></path>
                                            <path d="M23.4405839,21.328125 L48.6687911,21.328125 C49.2746013,21.328125 49.765625,20.8734564 49.765625,20.3125 C49.765625,19.7515436 49.2746013,19.296875 48.6687911,19.296875 L23.4405839,19.296875 C22.8347737,19.296875 22.34375,19.7515436 22.34375,20.3125 C22.34375,20.8734564 22.8347737,21.328125 23.4405839,21.328125" id="Fill-7" fill="#FFFFFF"></path>
                                            <path d="M48.6687911,33.515625 C49.2746013,33.515625 49.765625,33.0609564 49.765625,32.5 C49.765625,31.9390436 49.2746013,31.484375 48.6687911,31.484375 L23.4405839,31.484375 C22.8347737,31.484375 22.34375,31.9390436 22.34375,32.5 C22.34375,33.0609564 22.8347737,33.515625 23.4405839,33.515625 L48.6687911,33.515625 Z" id="Fill-9" fill="#FFFFFF"></path>
                                            <path d="M23.4405839,45.703125 L48.6687911,45.703125 C49.2746013,45.703125 49.765625,45.2484564 49.765625,44.6875 C49.765625,44.1265436 49.2746013,43.671875 48.6687911,43.671875 L23.4405839,43.671875 C22.8347737,43.671875 22.34375,44.1265436 22.34375,44.6875 C22.34375,45.2484564 22.8347737,45.703125 23.4405839,45.703125" id="Fill-11" fill="#FFFFFF"></path>
                                            <path d="M23.4405839,56.875 L48.6687911,56.875 C49.2746013,56.875 49.765625,56.4204237 49.765625,55.8594345 C49.765625,55.2984453 49.2746013,54.84375 48.6687911,54.84375 L23.4405839,54.84375 C22.8347737,54.84375 22.34375,55.2984453 22.34375,55.8594345 C22.34375,56.4204237 22.8347737,56.875 23.4405839,56.875" id="Fill-13" fill="#FFFFFF"></path>
                                            <g id="Group-17" stroke-width="1" fill="none" transform="translate(0.000000, 26.406250)">
                                                <mask id="mask-4" fill="white">
                                                    <use xlink:href="#path-3"></use>
                                                </mask>
                                                <g id="Clip-16"></g>
                                                <path d="M6.40458099,5.20744355 L13.4066728,13.201002 C14.2748457,14.189369 14.8309936,15.4368185 14.9985096,16.7720706 C13.6749222,16.5163952 12.4654994,15.8159415 11.5515612,14.7751552 L4.72283036,6.97961089 L6.40458099,5.20744355 Z M2.44103189,4.3747621 C2.12092347,4.00939919 2.03635714,3.47917742 2.22538776,3.02365323 C2.41441837,2.56812903 2.84135395,2.27353226 3.31318431,2.27313911 L3.33805676,2.27366331 C3.6613986,2.27903629 3.96844898,2.42463105 4.18682908,2.6761129 L4.96359566,3.56291734 L3.28234247,5.33508468 L2.44103189,4.3747621 Z M15.649919,19.0899234 L16.4245714,19.9063548 C16.6919503,20.1919093 17.0841888,20.304873 17.452301,20.2017379 C17.8204133,20.0987339 18.1078144,19.795881 18.2055631,19.4079778 C18.3033119,19.0200746 18.196236,18.606879 17.9251263,18.324994 L17.1699987,17.5292681 C17.1484841,15.3604173 16.3631365,13.2774032 14.9664241,11.6841169 L5.74707781,1.15922782 C5.17936416,0.512766129 4.39849362,0.119620968 3.56452041,0.0605181452 C3.50258801,0.0555383065 3.44326722,0.0385020161 3.38058865,0.0371915323 L3.3800912,0.0371915323 C2.71151977,0.0318185484 2.05588202,0.232060484 1.49376467,0.61341129 C1.30610204,0.742625 1.13174617,0.891889113 0.973184311,1.05884476 C-0.287973214,2.38072984 -0.328515306,4.51786694 0.881404974,5.89177823 L2.471625,7.70732258 L2.47199809,7.70771573 L9.99193431,16.2920403 C11.4630153,17.9614657 13.4912392,18.964379 15.649919,19.0899234 Z" id="Fill-15" fill="#FFFFFF" mask="url(#mask-4)"></path>
                                            </g>
                                        </g>
                                    </g>
                                </g>
                            </g>
                        </g>
                    </g>
                </g>
            </g>
        </g>
    </g>
</svg>