<?xml version="1.0" encoding="UTF-8"?>
<svg width="105px" height="105px" viewBox="0 0 105 105" version="1.1" xmlns="http://www.w3.org/2000/svg" xmlns:xlink="http://www.w3.org/1999/xlink">
    <!-- Generator: Sketch 49.3 (51167) - http://www.bohemiancoding.com/sketch -->
    <title>Group 49</title>
    <desc>Created with Sketch.</desc>
    <defs></defs>
    <g id="Page-1" stroke="none" stroke-width="1" fill="none" fill-rule="evenodd">
        <g id="Desktop-HD-Copy-13" transform="translate(-830.000000, -1979.000000)">
            <g id="Group-6" transform="translate(0.000000, 1630.000000)">
                <g id="Group-15">
                    <g id="Group-10" transform="translate(150.000000, 116.000000)">
                        <g id="Group-27" transform="translate(680.000000, 233.000000)">
                            <g id="Group-14">
                                <g id="Group-49">
                                    <circle id="Path-Copy-2" fill="#E94280" cx="52.5" cy="52.5" r="52.5"></circle>
                                    <g id="office" transform="translate(21.000000, 20.000000)" fill="#FFFFFF" fill-rule="nonzero">
                                        <path d="M17.5388281,54.3115625 C17.0357129,51.5330664 14.8611328,49.3584863 12.0826367,48.8553711 C8.40302734,48.1891211 4.88007812,50.6319531 4.21382812,54.3115625 C1.76833008,54.8888184 0.0410058594,57.0720312 0.041640625,59.5846875 C0.0424023438,62.5762109 2.4680957,65.0007617 5.45961914,65 L16.2929102,65 C18.8055664,65.0006348 20.9887793,63.2731836 21.5660352,60.8278125 C22.2534863,57.9162695 20.4503711,54.9988867 17.5388281,54.3115625 Z M16.2930371,62.291709 L5.45961914,62.291709 C3.96385742,62.291709 2.75132812,61.0791797 2.75132812,59.583418 C2.75132812,58.0876562 3.96385742,56.875127 5.45961914,56.875127 C6.2075,56.875127 6.81382813,56.2687988 6.81382813,55.520918 C6.81382813,53.2772754 8.63268555,51.458418 10.8763281,51.458418 C13.1199707,51.458418 14.9388281,53.2772754 14.9388281,55.520918 C14.9388281,56.2687988 15.5451563,56.875127 16.2930371,56.875127 C17.7887988,56.875127 19.0013281,58.0876562 19.0013281,59.583418 C19.0013281,61.0790527 17.7887988,62.291709 16.2930371,62.291709 Z" id="Shape"></path>
                                        <path d="M44.7305371,0 L20.3555371,0 C18.1118945,0 16.2930371,1.81885742 16.2930371,4.0625 L16.2930371,6.77079102 L19.0013281,6.77079102 L19.0013281,4.0625 C19.0013281,3.31461914 19.6076563,2.70829102 20.3555371,2.70829102 L44.7305371,2.70829102 C45.478418,2.70829102 46.0847461,3.31461914 46.0847461,4.0625 L46.0847461,6.77079102 L48.7930371,6.77079102 L48.7930371,4.0625 C48.7930371,1.81885742 46.9741797,0 44.7305371,0 Z" id="Shape"></path>
                                        <path d="M48.7930371,5.41670898 L42.0222461,5.41670898 L42.0222461,8.125 L48.7930371,8.125 C49.540918,8.125 50.1472461,8.73132813 50.1472461,9.47920898 L50.1472461,63.645918 L52.8555371,63.645918 L52.8555371,9.47920898 C52.8555371,7.23556641 51.0366797,5.41670898 48.7930371,5.41670898 Z" id="Shape"></path>
                                        <path d="M16.2930371,5.41670898 C14.0493945,5.41670898 12.2305371,7.23556641 12.2305371,9.47920898 L12.2305371,46.041709 L14.9388281,46.041709 L14.9388281,9.47920898 C14.9388281,8.73132813 15.5451562,8.125 16.2930371,8.125 L36.6055371,8.125 L36.6055371,5.41670898 L16.2930371,5.41670898 Z" id="Shape"></path>
                                        <rect id="Rectangle-path" x="13.5846191" y="13.541709" width="37.916709" height="2.70829102"></rect>
                                        <rect id="Rectangle-path" x="13.5846191" y="21.666709" width="37.916709" height="2.70829102"></rect>
                                        <rect id="Rectangle-path" x="13.5846191" y="29.791709" width="37.916709" height="2.70829102"></rect>
                                        <rect id="Rectangle-path" x="13.5846191" y="37.916709" width="37.916709" height="2.70829102"></rect>
                                        <rect id="Rectangle-path" x="17.6471191" y="46.041709" width="33.854209" height="2.70829102"></rect>
                                        <rect id="Rectangle-path" x="23.0638281" y="54.166709" width="28.4375" height="2.70829102"></rect>
                                        <rect id="Rectangle-path" x="23.0638281" y="62.291709" width="40.625" height="2.70829102"></rect>
                                        <rect id="Rectangle-path" x="21.7096191" y="14.895791" width="2.70829102" height="32.5"></rect>
                                    </g>
                                </g>
                            </g>
                        </g>
                    </g>
                </g>
            </g>
        </g>
    </g>
</svg>