<?xml version="1.0" encoding="UTF-8"?>
<svg width="105px" height="105px" viewBox="0 0 105 105" version="1.1" xmlns="http://www.w3.org/2000/svg" xmlns:xlink="http://www.w3.org/1999/xlink">
    <!-- Generator: Sketch 49.3 (51167) - http://www.bohemiancoding.com/sketch -->
    <title>Group 46</title>
    <desc>Created with Sketch.</desc>
    <defs></defs>
    <g id="Page-1" stroke="none" stroke-width="1" fill="none" fill-rule="evenodd">
        <g id="Desktop-HD-Copy-13" transform="translate(-490.000000, -1759.000000)">
            <g id="Group-6" transform="translate(0.000000, 1630.000000)">
                <g id="Group-15">
                    <g id="Group-10" transform="translate(150.000000, 116.000000)">
                        <g id="Group-19" transform="translate(340.000000, 13.000000)">
                            <g id="Group-46">
                                <circle id="Oval-2" fill="#E94280" cx="52.5" cy="52.5" r="52.5"></circle>
                                <g id="003-open-book" transform="translate(20.000000, 20.000000)" fill="#FFFFFF" fill-rule="nonzero">
                                    <path d="M36.8785673,30.7655263 C37.0698928,31.1396881 37.4505166,31.355848 37.8440643,31.355848 C38.0084016,31.355848 38.1770468,31.317963 38.3339084,31.2380117 C38.3976413,31.205575 44.7618129,27.9726803 47.9005653,26.9812086 C48.469347,26.800653 48.7849708,26.1929727 48.6044152,25.6243177 C48.4248733,25.0555361 47.8216277,24.7387719 47.2475244,24.9183138 C43.9411404,25.9638889 37.6203021,29.175117 37.352193,29.3113255 C36.8201559,29.5815887 36.6083041,30.2326023 36.8785673,30.7655263 Z" id="Shape"></path>
                                    <path d="M37.8440643,18.3813158 C38.0084016,18.3813158 38.1770468,18.3434308 38.3339084,18.2634795 C38.3976413,18.2310429 44.7618129,14.9981481 47.9005653,14.0066764 C48.469347,13.8261209 48.7849708,13.2184405 48.6044152,12.6497856 C48.4248733,12.0810039 47.8216277,11.7642398 47.2475244,11.9437817 C43.9411404,12.9893567 37.6203021,16.2005848 37.352193,16.3367934 C36.8202827,16.6070565 36.6083041,17.2579435 36.8785673,17.7909942 C37.0698928,18.1650292 37.4505166,18.3813158 37.8440643,18.3813158 Z" id="Shape"></path>
                                    <path d="M63.7923684,16.2188304 C63.1944444,16.2188304 62.7111891,16.7032261 62.7111891,17.3000097 L62.7111891,59.4676511 C62.7111891,61.2559747 61.255848,62.7113158 59.4675244,62.7113158 L33.5182066,62.7113158 L33.5182066,60.2234503 C35.0946784,59.6720273 39.2010819,58.3864717 43.2492008,58.3864717 C52.6677388,58.3864717 59.0632066,60.4721735 59.1269396,60.4937135 C59.4523197,60.6017934 59.8157115,60.5478168 60.100039,60.3444542 C60.3822125,60.1412183 60.5487037,59.8146979 60.5487037,59.4675244 L60.5487037,11.8939864 C60.5487037,11.3869103 60.1973489,10.9478752 59.7020565,10.838655 C59.7020565,10.838655 58.8543957,10.6494834 57.4055166,10.3834016 C56.8205166,10.2753216 56.2551559,10.6645614 56.1469493,11.250575 C56.0388694,11.8387427 56.4269688,12.402076 57.0141228,12.5101559 C57.5666862,12.6117739 58.0294152,12.7014815 58.3862183,12.7729435 L58.3862183,58.0306823 C55.9361111,57.3884113 50.4954971,56.2239864 43.2490741,56.2239864 C38.5381579,56.2239864 33.910614,57.7711891 32.4789669,58.2956238 C31.2063353,57.7334308 27.359425,56.2239864 22.7057797,56.2239864 C15.2582749,56.2239864 9.12344055,57.452271 6.48745614,58.0761696 L6.48745614,12.7307505 C8.64664717,12.1998538 15.0237427,10.8126803 22.7057797,10.8126803 C26.6479727,10.8126803 30.0288596,12.0398246 31.3555945,12.5945419 L31.3555945,55.142807 C31.3555945,55.5320468 31.5652924,55.8921442 31.9037232,56.0834698 C32.242154,56.2759357 32.6595224,56.2704873 32.9936452,56.0694055 C33.1007115,56.0056725 43.8134211,49.6069103 53.3216667,46.4378752 C53.7638694,46.2897563 54.0612476,45.8778363 54.0612476,45.4118129 L54.0612476,1.08168616 C54.0612476,0.727037037 53.887154,0.395068226 53.5952242,0.19297271 C53.3054483,-0.00924951267 52.9335673,-0.0557504873 52.5994444,0.0686744639 C43.948616,3.31335283 35.1951559,8.76055556 35.1074756,8.81465887 C34.6014133,9.131423 34.4468324,9.79852827 34.7635965,10.3045906 C35.079347,10.810653 35.7464522,10.9652339 36.2535283,10.6484698 C36.3334795,10.5976608 43.948616,5.85975634 51.8987622,2.66259259 L51.8987622,44.637768 C44.5182846,47.2024172 36.8124269,51.390039 33.5179532,53.2647758 L33.5179532,11.8939864 C33.5179532,11.4842203 33.2865887,11.1100585 32.9200292,10.9263353 C32.7340253,10.8344737 28.3032554,8.65032164 22.7057797,8.65032164 C12.9358869,8.65032164 5.42464912,10.764152 5.10889864,10.8548733 C4.64502924,10.9867739 4.32497076,11.4117446 4.32497076,11.8939864 L4.32497076,59.4677778 C4.32497076,59.8062086 4.485,60.1262671 4.75424951,60.3306433 C4.9445614,60.4744542 5.17377193,60.5490838 5.4062768,60.5490838 C5.50574074,60.5490838 5.60520468,60.5350195 5.70251462,60.5068908 C5.77714425,60.4863645 13.2537914,58.3865984 22.7057797,58.3865984 C26.6587427,58.3865984 30.036462,59.617037 31.3555945,60.1694737 L31.3555945,62.7114425 L5.4062768,62.7114425 C3.61795322,62.7114425 2.16261209,61.2561014 2.16261209,59.4677778 L2.16261209,17.3001365 C2.16261209,16.7033528 1.67821637,16.2189571 1.08143275,16.2189571 C0.484649123,16.2189571 0.000253411306,16.7033528 0.000253411306,17.3001365 L0.000253411306,59.4677778 C0.000253411306,62.448655 2.42539961,64.8739279 5.40640351,64.8739279 L59.4675244,64.8739279 C62.4484016,64.8739279 64.8736745,62.4487817 64.8736745,59.4677778 L64.8736745,17.3001365 C64.8735478,16.7032261 64.3902924,16.2188304 63.7923684,16.2188304 Z" id="Shape"></path>
                                    <path d="M36.8785673,24.2781969 C37.0698928,24.6523587 37.4505166,24.8685185 37.8440643,24.8685185 C38.0084016,24.8685185 38.1770468,24.8306335 38.3339084,24.7506823 C38.3976413,24.7182456 44.7618129,21.4853509 47.9005653,20.4938791 C48.469347,20.3133236 48.7849708,19.7056433 48.6044152,19.1369883 C48.4248733,18.5682066 47.8216277,18.2514425 47.2475244,18.4309844 C43.9411404,19.4765595 37.6203021,22.6877875 37.352193,22.8239961 C36.8201559,23.0942593 36.6083041,23.7452729 36.8785673,24.2781969 Z" id="Shape"></path>
                                    <path d="M36.8785673,37.2528558 C37.0698928,37.6270175 37.4505166,37.8431774 37.8440643,37.8431774 C38.0084016,37.8431774 38.1770468,37.8052924 38.3339084,37.7253411 C38.3976413,37.6929045 44.7618129,34.4600097 47.9005653,33.468538 C48.469347,33.2879825 48.7849708,32.6803021 48.6044152,32.1116472 C48.4248733,31.5428655 47.8216277,31.2261014 47.2475244,31.4056433 C43.9411404,32.4512183 37.6203021,35.6624464 37.352193,35.798655 C36.8201559,36.0689181 36.6083041,36.7199318 36.8785673,37.2528558 Z" id="Shape"></path>
                                    <path d="M26.1961404,20.0658674 C19.5196394,18.499152 11.9326316,20.4951462 11.6137135,20.5805458 C11.0374561,20.7351267 10.6947173,21.3276023 10.8492982,21.905 C10.9790448,22.3882554 11.4157992,22.7061598 11.8927193,22.7061598 C11.9857212,22.7061598 12.0797368,22.6942495 12.1738791,22.6694152 C12.2463548,22.6488889 19.5510624,20.7275244 25.7032554,22.1709552 C26.2816667,22.3061501 26.8666667,21.9460526 27.0028752,21.364347 C27.1389571,20.7837817 26.777846,20.202076 26.1961404,20.0658674 Z" id="Shape"></path>
                                    <path d="M26.1961404,26.5531969 C19.5196394,24.9876218 11.9326316,26.9824756 11.6137135,27.0678752 C11.0374561,27.2224561 10.6947173,27.8150585 10.8492982,28.3923294 C10.9790448,28.8755848 11.4157992,29.1934893 11.8927193,29.1934893 C11.9857212,29.1934893 12.0797368,29.1815789 12.1738791,29.1567446 C12.2463548,29.1362183 19.5510624,27.2148538 25.7032554,28.6582846 C26.2816667,28.7934795 26.8666667,28.4333821 27.0028752,27.8516764 C27.1389571,27.2711111 26.777846,26.6894055 26.1961404,26.5531969 Z" id="Shape"></path>
                                    <path d="M36.8785673,43.7401852 C37.0698928,44.114347 37.4505166,44.3305068 37.8440643,44.3305068 C38.0084016,44.3305068 38.1770468,44.2926218 38.3339084,44.2126706 C38.3976413,44.1802339 44.7618129,40.9473392 47.9005653,39.9558674 C48.469347,39.7753119 48.7849708,39.1676316 48.6044152,38.5989766 C48.4248733,38.0303216 47.8216277,37.7134308 47.2475244,37.8929727 C43.9411404,38.9385478 37.6203021,42.1497758 37.352193,42.2859844 C36.8201559,42.5562476 36.6083041,43.2072612 36.8785673,43.7401852 Z" id="Shape"></path>
                                    <path d="M26.1961404,33.0405263 C19.5196394,31.4749513 11.9326316,33.4686647 11.6137135,33.5552047 C11.0374561,33.7097856 10.6947173,34.3023879 10.8492982,34.8796589 C10.9790448,35.3629142 11.4157992,35.6819591 11.8927193,35.6819591 C11.9857212,35.6819591 12.0797368,35.6690351 12.1738791,35.6440741 C12.2463548,35.6235478 19.5510624,33.7021832 25.7032554,35.145614 C26.2816667,35.280809 26.8666667,34.9207115 27.0028752,34.3390058 C27.1389571,33.7584405 26.777846,33.1767349 26.1961404,33.0405263 Z" id="Shape"></path>
                                    <path d="M26.1961404,46.0151852 C19.5196394,44.4484698 11.9326316,46.4444639 11.6137135,46.5298635 C11.0374561,46.6844444 10.6947173,47.2770468 10.8492982,47.8543177 C10.9790448,48.3375731 11.4157992,48.6566179 11.8927193,48.6566179 C11.9857212,48.6566179 12.0797368,48.643694 12.1738791,48.6187329 C12.2463548,48.5982066 19.5510624,46.6768421 25.7032554,48.1202729 C26.2816667,48.2543275 26.8666667,47.8953704 27.0028752,47.3136647 C27.1389571,46.7330994 26.777846,46.1513938 26.1961404,46.0151852 Z" id="Shape"></path>
                                    <path d="M26.1961404,39.5278558 C19.5196394,37.9611404 11.9326316,39.9559942 11.6137135,40.0425341 C11.0374561,40.197115 10.6947173,40.7897173 10.8492982,41.3669883 C10.9790448,41.8502437 11.4157992,42.1692885 11.8927193,42.1692885 C11.9857212,42.1692885 12.0797368,42.1563645 12.1738791,42.1314035 C12.2463548,42.1108772 19.5510624,40.1895127 25.7032554,41.6329435 C26.2816667,41.7681384 26.8666667,41.4080409 27.0028752,40.8263353 C27.1389571,40.24577 26.777846,39.6640643 26.1961404,39.5278558 Z" id="Shape"></path>
                                </g>
                            </g>
                        </g>
                    </g>
                </g>
            </g>
        </g>
    </g>
</svg>