<?xml version="1.0" encoding="UTF-8"?>
<svg width="24px" height="21px" viewBox="0 0 24 21" version="1.1" xmlns="http://www.w3.org/2000/svg" xmlns:xlink="http://www.w3.org/1999/xlink">
    <!-- Generator: Sketch 52.1 (67048) - http://www.bohemiancoding.com/sketch -->
    <title>Page 1</title>
    <desc>Created with Sketch.</desc>
    <defs>
        <polygon id="path-1" points="1.00699301e-05 0.000459701493 11.0402786 0.000459701493 11.0402786 20.3076923 1.00699301e-05 20.3076923"></polygon>
        <polygon id="path-3" points="0.0411249565 0.000454649828 11.0308611 0.000454649828 11.0308611 20.3076873 0.0411249565 20.3076873"></polygon>
    </defs>
    <g id="Page-1" stroke="none" stroke-width="1" fill="none" fill-rule="evenodd">
        <g id="Desktop-HD-Copy-15" transform="translate(-150.000000, -1311.000000)">
            <g id="Group-33" transform="translate(150.000000, 1166.000000)">
                <g id="Group-32" transform="translate(0.000000, 145.000000)">
                    <g id="Page-1">
                        <g id="Group-3">
                            <mask id="mask-2" fill="white">
                                <use xlink:href="#path-1"></use>
                            </mask>
                            <g id="Clip-2"></g>
                            <path d="M8.28001007,9.23111412 L5.05994853,9.23111412 C4.67658629,9.23111412 4.35067301,9.09653777 4.08230937,8.82728404 C3.81409678,8.55803031 3.67981427,8.23113708 3.67981427,7.8464023 L3.67981427,7.38508427 C3.67981427,6.36580987 4.03926042,5.49571114 4.75810238,4.77448496 C5.47689399,4.05351137 6.34426741,3.69287302 7.36007161,3.69287302 L8.28001007,3.69287302 C8.52914014,3.69287302 8.74468699,3.6014884 8.92685203,3.41887072 C9.10891636,3.23615201 9.19994853,3.01989024 9.19994853,2.76988335 L9.19994853,0.923600918 C9.19994853,0.673644546 9.10886601,0.457180712 8.92685203,0.274461998 C8.74473734,0.0919958668 8.52919049,0.000459701493 8.28001007,0.000459701493 L7.36007161,0.000459701493 C6.36329958,0.000459701493 5.41234573,0.195352928 4.50660587,0.584583697 C3.60096671,0.974067049 2.81762685,1.50055155 2.1562842,2.16408772 C1.49499189,2.82732078 0.970398881,3.6133093 0.582253427,4.52205327 C0.194107972,5.43069621 1.00699301e-05,6.38505672 1.00699301e-05,7.38503375 L1.00699301e-05,17.5384253 C1.00699301e-05,18.3080464 0.268222657,18.9615297 0.80489958,19.5001887 C1.34162685,20.0385447 1.99345343,20.3076974 2.7600772,20.3076974 L8.28036252,20.3076974 C9.04693594,20.3076974 9.69856112,20.0385447 10.2353387,19.5001887 C10.771915,18.9615297 11.0402786,18.3080464 11.0402786,17.5384253 L11.0402786,12.0003357 C11.0402786,11.2308661 10.771915,10.5773828 10.2349863,10.0386732 C9.69846042,9.50036785 9.0465835,9.23111412 8.28001007,9.23111412" id="Fill-1" fill="#E7E7E7" mask="url(#mask-2)"></path>
                        </g>
                        <g id="Group-6" transform="translate(12.923077, 0.000000)">
                            <mask id="mask-4" fill="white">
                                <use xlink:href="#path-3"></use>
                            </mask>
                            <g id="Clip-5"></g>
                            <path d="M10.2299896,10.0386631 C9.69594152,9.50035775 9.04716464,9.23110402 8.2839095,9.23110402 L5.0784685,9.23110402 C4.6969913,9.23110402 4.37230212,9.09652767 4.1056039,8.82727394 C3.83835433,8.55802021 3.70487992,8.23112698 3.70487992,7.84639219 L3.70487992,7.38507417 C3.70487992,6.36579977 4.06269962,5.49570103 4.77798817,4.77447486 C5.49322659,4.05350126 6.35667525,3.69286292 7.36833415,3.69286292 L8.28395962,3.69286292 C8.53196241,3.69286292 8.7466843,3.6014783 8.9278747,3.41886062 C9.10901497,3.23614191 9.19993596,3.01988014 9.19993596,2.76987325 L9.19993596,0.923590815 C9.19993596,0.673634443 9.10906509,0.457170608 8.9278747,0.274451894 C8.74673442,0.0919857635 8.53201253,0.000449598163 8.28395962,0.000449598163 L7.36833415,0.000449598163 C6.37557118,0.000449598163 5.42912078,0.195342824 4.52722868,0.584573594 C3.62578768,0.974056946 2.84629307,1.50054145 2.18794292,2.16407761 C1.52954264,2.82731068 1.00707275,3.6132992 0.620833971,4.52204317 C0.234545075,5.43068611 0.0411249565,6.38504661 0.0411249565,7.38502365 L0.0411249565,17.5384152 C0.0411249565,18.3080363 0.308374521,18.9615196 0.842422555,19.5001786 C1.37657083,20.0385346 2.02534772,20.3076873 2.78855273,20.3076873 L8.28355865,20.3076873 C9.04691403,20.3076873 9.69559067,20.0385346 10.2296387,19.5001786 C10.7641378,18.9615196 11.0308862,18.3080363 11.0308862,17.5384152 L11.0308862,12.0003256 C11.0308862,11.230856 10.7641378,10.5773727 10.2299896,10.0386631" id="Fill-4" fill="#E7E7E7" mask="url(#mask-4)"></path>
                        </g>
                    </g>
                </g>
            </g>
        </g>
    </g>
</svg>