<?xml version="1.0" encoding="UTF-8"?>
<svg width="105px" height="105px" viewBox="0 0 105 105" version="1.1" xmlns="http://www.w3.org/2000/svg" xmlns:xlink="http://www.w3.org/1999/xlink">
    <!-- Generator: Sketch 52.1 (67048) - http://www.bohemiancoding.com/sketch -->
    <title>Group 20</title>
    <desc>Created with Sketch.</desc>
    <defs>
        <circle id="path-1" cx="52.5" cy="52.5" r="52.5"></circle>
        <polygon id="path-3" points="1.2413531e-06 0.00025390625 64.8733908 0.00025390625 64.8733908 65 1.2413531e-06 65"></polygon>
    </defs>
    <g id="Page-1" stroke="none" stroke-width="1" fill="none" fill-rule="evenodd">
        <g id="Desktop-HD-Copy-15" transform="translate(-470.000000, -1694.000000)">
            <g id="Group-14" transform="translate(0.000000, 1560.000000)">
                <g id="Group-6">
                    <g id="Group-15">
                        <g id="Group-16" transform="translate(150.000000, 134.000000)">
                            <g id="Group-10">
                                <g id="Group-25">
                                    <g id="Group-2" transform="translate(320.000000, 0.000000)">
                                        <g id="Group-13-Copy">
                                            <g id="Group-26">
                                                <g id="Group-20">
                                                    <mask id="mask-2" fill="white">
                                                        <use xlink:href="#path-1"></use>
                                                    </mask>
                                                    <use id="Path-Copy-3" fill="#E94280" xlink:href="#path-1"></use>
                                                    <g id="Page-1" mask="url(#mask-2)">
                                                        <g transform="translate(20.000000, 20.000000)">
                                                            <path d="M9.39261782,46.7437475 C9.02354626,46.3746737 8.42514379,46.3746737 8.05619824,46.7437475 L4.84291937,49.9570462 C4.47384781,50.3261201 4.47384781,50.9245262 4.84291937,51.2933481 C5.21199093,51.6625479 5.8103934,51.6625479 6.17933895,51.2933481 L9.39261782,48.0800493 C9.76168938,47.7112275 9.76168938,47.1128214 9.39261782,46.7437475" id="Fill-1" fill="#FFFFFF"></path>
                                                            <path d="M12.6157583,49.9668863 C12.2466868,49.5978148 11.6482843,49.5978148 11.2793387,49.9668863 L8.06605987,53.1801652 C7.69698831,53.5493627 7.69698831,54.1477652 8.06605987,54.5165848 C8.43513143,54.8856563 9.03353389,54.8856563 9.40247945,54.5165848 L12.6157583,51.3033059 C12.9848299,50.9344863 12.9848299,50.3360839 12.6157583,49.9668863" id="Fill-3" fill="#FFFFFF"></path>
                                                            <path d="M19.0620393,56.1445723 C18.6930938,55.7755007 18.0946913,55.7755007 17.7256197,56.1445723 L14.5123409,59.3578511 C14.1432693,59.7269227 14.1432693,60.3253252 14.5123409,60.6942707 C14.8814124,61.0633423 15.4798149,61.0633423 15.8487604,60.6942707 L19.0620393,57.4809918 C19.4311109,57.1120463 19.4311109,56.5136438 19.0620393,56.1445723" id="Fill-5" fill="#FFFFFF"></path>
                                                            <path d="M15.8388988,53.1901179 C15.4698273,52.8209249 14.8714248,52.8209249 14.5024792,53.1901179 L11.2892004,56.4033571 C10.9201288,56.7724241 10.9201288,57.3708192 11.2892004,57.7396342 C11.6582719,58.1088272 12.2566744,58.1088272 12.6256199,57.7396342 L15.8388988,54.526395 C16.2079704,54.15758 16.2079704,53.5591849 15.8388988,53.1901179" id="Fill-7" fill="#FFFFFF"></path>
                                                            <g id="Group-11" stroke-width="1" fill="none">
                                                                <mask id="mask-4" fill="white">
                                                                    <use xlink:href="#path-3"></use>
                                                                </mask>
                                                                <g id="Clip-10"></g>
                                                                <path d="M60.248424,11.1761787 L53.719155,4.63415723 L62.9452271,1.93195996 L60.248424,11.1761787 Z M57.2277612,21.5309834 C55.9705877,22.7906123 31.8728197,46.9354463 30.7580634,48.0523799 L25.5816306,42.86571 L37.6604805,30.7631416 C38.5312018,29.8908467 38.6983265,28.3992744 37.5676053,27.2663447 C36.6289698,26.325876 35.1096423,26.325749 34.1706267,27.2663447 L22.0915234,39.36904 L16.9149639,34.1823701 C17.9702953,33.1249775 42.1527027,8.89533887 43.3846618,7.66097363 L51.639155,5.24327832 L59.6403635,13.2602412 L57.2277612,21.5309834 Z M27.5105975,51.3059346 C27.5085702,51.3079658 27.5060361,51.3086006 27.5038821,51.3103779 C27.4700517,51.3380537 27.4207632,51.337292 27.3894669,51.3059346 C26.8225858,50.7378193 22.8693694,46.7767549 22.2737261,46.1799482 L24.2374103,44.2123018 L29.4138431,49.3989717 L27.5105975,51.3059346 Z M21.2688236,52.5566768 C21.155422,52.6701729 21.0206072,52.6871846 20.9502856,52.6871846 C20.8799639,52.6871846 20.7451491,52.6701729 20.6317476,52.5566768 L18.2328294,50.1529463 C18.3725858,50.0617939 18.5043596,49.9564229 18.6251101,49.8355635 L20.9296326,47.52654 L23.6094571,50.2115986 L21.2688236,52.5566768 Z M17.327771,48.4423799 C17.1064162,48.66404 16.7478392,48.6649287 16.5257242,48.4423799 C16.3046228,48.2208467 16.3046228,47.8604268 16.5257242,47.6387666 C17.2969815,46.8660029 34.4358216,29.6936885 35.4680926,28.6594014 C35.6893207,28.4377412 36.049038,28.4378682 36.2701394,28.6594014 C36.4913674,28.8811885 36.4921277,29.2405928 36.2701394,29.4630146 L23.5654903,42.1923506 C22.8815331,42.8777705 17.9178392,47.8511592 17.327771,48.4423799 Z M15.1352563,46.3387666 C15.0146326,46.459626 14.9094669,46.5917842 14.8184922,46.7316865 L12.4194474,44.3283369 C12.2468743,44.1551729 12.2468743,43.8630537 12.4194474,43.6898896 L14.7600809,41.3446846 C15.9722739,42.5593721 16.5658899,43.1541475 17.4399055,44.0297432 L15.1352563,46.3387666 Z M15.5709971,35.528835 L20.7475565,40.7155049 L18.7837456,42.6830244 C16.7330146,40.6282881 14.0664942,37.9590986 13.6059191,37.497751 L15.5709971,35.528835 Z M2.08280019,32.0461299 C1.9147885,32.0315303 1.84155263,31.8310713 1.96116277,31.7112275 C7.63098733,26.0303291 15.1538821,22.5306123 23.1438138,21.8567451 L26.8398177,21.5450752 L15.2124201,33.1950557 L2.08280019,32.0461299 Z M62.5054318,0.0767939453 C58.3767281,1.28602246 46.5353246,4.75412793 42.6180926,5.90140332 C42.4647788,5.94621777 42.3255292,6.02899121 42.2127612,6.14210645 L28.9224786,19.4583467 L22.9844181,19.9590498 C14.5474688,20.6704951 6.60391131,24.3659736 0.617069201,30.3645088 C-0.643018519,31.6270576 0.144076998,33.7879268 1.91732261,33.9431904 L13.4576735,34.9532295 L12.2620789,36.1512861 C11.5200906,36.8944697 11.5197105,38.0981123 12.2620789,38.8418037 L13.4162407,39.9982197 L11.0756072,42.3434248 C10.1588918,43.2616768 10.1588918,44.7564229 11.0756072,45.6748018 C12.0774688,46.6784932 18.2808509,52.8939912 19.2880341,53.9032686 C20.2046228,54.8217744 21.6964552,54.8217744 22.6129172,53.9032686 L24.953424,51.5581904 L26.0456267,52.6525264 C26.8210653,53.4296064 28.0816598,53.4269404 28.854691,52.6525264 L29.9884532,51.5165498 L30.9965234,63.0793135 C31.0682388,63.9017158 31.5938138,64.5882783 32.3682388,64.8706221 C33.140383,65.1523311 33.984116,64.9672334 34.5681023,64.3819795 C38.2520692,60.6908174 41.037693,56.3342939 42.8479366,51.4330146 C43.0301394,50.9398018 42.7787554,50.391999 42.2865039,50.2095674 C41.7941257,50.0267549 41.2476442,50.2787568 41.0654415,50.7720967 C39.351114,55.4138838 36.7128489,59.5398604 33.2241355,63.0353877 C33.1051589,63.1548506 32.9045838,63.0828682 32.889886,62.9132588 L31.7430731,49.758249 L43.3736384,38.1049678 C42.987693,42.8258467 42.8830341,44.0570381 42.3442817,46.4495967 C42.2287261,46.9626143 42.5501784,47.4720771 43.0621959,47.5878584 C43.57396,47.7035127 44.0828099,47.3815596 44.1982388,46.868542 C44.8560945,43.9472236 44.90627,42.5588643 45.4531316,36.0212861 L58.7434142,22.7050459 C58.856309,22.5920576 58.9387943,22.4524092 58.9836481,22.2989229 L61.6226735,13.2531318 C61.6226735,13.2530049 61.6228002,13.2528779 61.6228002,13.2528779 L64.7970302,2.3724873 C65.2064162,0.969401367 63.9017281,-0.332883789 62.5054318,0.0767939453 Z" id="Fill-9" fill="#FFFFFF" mask="url(#mask-4)"></path>
                                                            </g>
                                                            <path d="M48.3748822,16.6763167 C47.8334761,16.1377533 47.2066115,15.7061235 46.5113295,15.393616 C46.0348064,15.1796231 45.4740869,15.3903489 45.2587363,15.8647019 C45.0436382,16.3390549 45.2555805,16.8972207 45.7319775,17.1114649 C48.5460518,18.3765738 49.2110383,22.0618252 47.0358206,24.227011 C45.3136469,25.9412159 42.5116908,25.9412159 40.7896434,24.227011 C38.6131634,22.060443 39.2752465,18.3780816 42.0933603,17.1114649 C42.5698834,16.8972207 42.7815733,16.3390549 42.5666014,15.8647019 C42.351377,15.3903489 41.7905314,15.1794975 41.3140082,15.393616 C37.2940463,17.2009323 36.3360769,22.4592765 39.4509605,25.5598487 C40.6810845,26.7843705 42.2970976,27.3966942 43.9129844,27.3966942 C49.517023,27.3966942 52.3394286,20.6225566 48.3748822,16.6763167" id="Fill-12" fill="#FFFFFF"></path>
                                                        </g>
                                                    </g>
                                                </g>
                                            </g>
                                        </g>
                                    </g>
                                </g>
                            </g>
                        </g>
                    </g>
                </g>
            </g>
        </g>
    </g>
</svg>