<?xml version="1.0" encoding="UTF-8"?>
<svg width="105px" height="105px" viewBox="0 0 105 105" version="1.1" xmlns="http://www.w3.org/2000/svg" xmlns:xlink="http://www.w3.org/1999/xlink">
    <!-- Generator: Sketch 52.1 (67048) - http://www.bohemiancoding.com/sketch -->
    <title>Group 21</title>
    <desc>Created with Sketch.</desc>
    <defs>
        <circle id="path-1" cx="52.5" cy="52.5" r="52.5"></circle>
        <polygon id="path-3" points="0 0.0169228516 64.9999746 0.0169228516 64.9999746 47.7342861 0 47.7342861"></polygon>
    </defs>
    <g id="Page-1" stroke="none" stroke-width="1" fill="none" fill-rule="evenodd">
        <g id="Desktop-HD-Copy-15" transform="translate(-470.000000, -1927.000000)">
            <g id="Group-14" transform="translate(0.000000, 1560.000000)">
                <g id="Group-6">
                    <g id="Group-15">
                        <g id="Group-16" transform="translate(150.000000, 134.000000)">
                            <g id="Group-10">
                                <g id="Group-25">
                                    <g id="Group-3" transform="translate(320.000000, 233.000000)">
                                        <g id="Group-21">
                                            <mask id="mask-2" fill="white">
                                                <use xlink:href="#path-1"></use>
                                            </mask>
                                            <use id="Path-Copy-4" fill="#E94280" xlink:href="#path-1"></use>
                                            <g id="Page-1" mask="url(#mask-2)">
                                                <g transform="translate(20.000000, 29.000000)">
                                                    <path d="M57.3472275,21.6066348 C55.1354502,20.500873 50.9885264,20.4880508 50.8130771,20.4880508 C50.2873643,20.4880508 49.8609287,20.9143594 49.8609287,21.4401992 C49.8609287,21.9660391 50.2873643,22.3923477 50.8130771,22.3923477 C51.883165,22.3924746 54.9902158,22.5572598 56.495626,23.3099648 C56.6323545,23.3783926 56.7777158,23.4106387 56.920792,23.4106387 C57.27004,23.4106387 57.6062119,23.2176699 57.7730283,22.8841641 C58.0082725,22.4138027 57.8175889,21.8418789 57.3472275,21.6066348" id="Fill-1" fill="#FFFFFF"></path>
                                                    <g id="Group-5" stroke-width="1" fill="none" transform="translate(0.000000, 0.110068)">
                                                        <mask id="mask-4" fill="white">
                                                            <use xlink:href="#path-3"></use>
                                                        </mask>
                                                        <g id="Clip-4"></g>
                                                        <path d="M57.4578164,30.1213174 C56.448666,31.1006338 55.1155313,31.6178408 53.708002,31.5742959 C50.9526113,31.4917764 48.711127,29.0648135 48.711127,26.1645693 L48.711127,24.3845596 C48.711127,24.2365322 48.6765957,24.090917 48.6105801,23.9587588 L48.0222793,22.7824111 C47.8068398,22.3514053 47.6929629,21.8689834 47.6929629,21.3870693 L47.6929629,21.3303213 C47.6929629,19.0484658 49.5493984,17.1921572 51.8312539,17.1921572 L60.0416934,17.1921572 L60.0416934,21.1467471 C60.0416934,21.7858291 59.8904922,22.4257998 59.6047207,22.9974697 L59.1240762,23.9587588 C59.0579336,24.0910439 59.0235293,24.2365322 59.0235293,24.3845596 L59.0235293,26.4206338 C59.0235293,27.8272744 58.4674746,29.1413662 57.4578164,30.1213174 Z M53.8672012,36.2727041 L51.706459,34.1120889 C51.7441641,33.9408291 51.7654922,33.7531924 51.7653652,33.5463857 L51.7652383,33.1445791 C52.3648379,33.3413564 52.9968105,33.4582803 53.6507461,33.4777041 C53.724125,33.4801162 53.7968691,33.4811318 53.8699941,33.4811318 C54.5926113,33.4811318 55.2979629,33.3718252 55.969291,33.1636221 L55.969291,33.5468936 C55.969291,33.7368154 55.9931582,33.9229287 56.0380996,34.1018057 L53.8672012,36.2727041 Z M36.4809707,37.0759365 C36.4757656,37.0839346 36.4634512,37.1019619 36.4324746,37.1051357 C36.401498,37.1090713 36.3862637,37.0926943 36.3794082,37.0860928 L33.9968789,34.7036904 L38.4891152,31.6329482 L39.4421523,32.6342275 L36.4809707,37.0759365 Z M32.5120352,33.4115615 L27.355834,29.8869619 L27.355834,28.1096182 C28.6899844,28.8309658 30.1838418,29.2820303 31.7726602,29.3847354 C32.0236465,29.4011123 32.2731094,29.4091104 32.5218105,29.4091104 C34.3424453,29.4091104 36.0947793,28.973915 37.6682363,28.1478311 L37.6682363,29.8869619 L32.5120352,33.4115615 Z M28.6446621,37.0858389 C28.6380605,37.0925674 28.6226992,37.1081826 28.5915957,37.1048818 C28.5606191,37.101708 28.5484316,37.0836807 28.5432266,37.0756826 L25.5820449,32.6339736 L26.5349551,31.6325674 L31.0271914,34.7033096 L28.6446621,37.0858389 Z M23.2835586,17.9273428 L23.2835586,15.564999 C23.2835586,15.4216689 23.2511855,15.2801162 23.1888516,15.1510049 C22.5761758,13.8822354 22.2655215,12.5360244 22.2655215,11.1496963 L22.2655215,9.11362207 C22.2655215,5.1477334 25.4920352,1.92134668 29.4577969,1.92134668 L42.7585488,1.92134668 L42.7585488,11.1498232 C42.7585488,12.5361514 42.4480215,13.8823623 41.8352188,15.1511318 C41.7728848,15.2802432 41.7405117,15.4217959 41.7405117,15.565126 L41.7405117,18.27621 C41.7405117,20.8547549 40.7039395,23.2464248 38.8217324,25.0106924 C38.5867422,25.2308291 38.3429922,25.4372549 38.0907363,25.6295889 C38.0851504,25.6332705 38.0798184,25.6375869 38.0743594,25.6415225 C36.3111074,26.9802432 34.1513809,27.6308779 31.8959316,27.4846279 C27.0665078,27.1720693 23.2835586,22.9739834 23.2835586,17.9273428 Z M14.1208437,33.3742373 L14.1209707,32.2386416 C15.2286367,31.4760342 16.1093105,30.4032803 16.6347695,29.1347646 C16.7489004,29.9546279 16.9173672,30.7313271 17.1768594,31.4093838 C16.7976504,31.8716201 15.9000918,32.7336318 14.1208437,33.3742373 Z M10.1150918,31.5769619 C7.27184961,31.5769619 4.95889062,29.263876 4.95889062,26.4207607 C4.95889062,25.8949209 4.53258203,25.4686123 4.00674219,25.4686123 C3.95342188,25.4686123 3.90137109,25.4740713 3.85046289,25.4825771 C3.85325586,25.4005654 3.85592187,25.3186807 3.85871484,25.2374307 C3.87991602,24.5828604 3.90035547,23.9644717 3.93806055,23.4340615 C4.05968164,21.7232412 4.74332422,20.1467373 5.86305078,18.9947646 C6.99280664,17.8323818 8.50278711,17.1922842 10.1148379,17.1922842 C11.7268887,17.1922842 13.2367422,17.8323818 14.366625,18.9947646 C15.4863516,20.1467373 16.1699941,21.7232412 16.2916152,23.4340615 C16.3291934,23.9643447 16.3497598,24.5826064 16.3713418,25.2370498 C16.3732461,25.293417 16.3751504,25.3504189 16.3770547,25.40704 C15.3411172,23.8109854 13.7412539,22.6347646 11.6740762,21.9705459 C9.76432031,21.3569814 8.12180078,21.3949404 8.05248437,21.3967178 C7.80314844,21.4037002 7.56650781,21.5080557 7.3934707,21.6875674 L5.67554102,23.4692275 C5.31055078,23.8476748 5.32146875,24.4505752 5.70004297,24.8155654 C6.07861719,25.1805557 6.68139063,25.1695107 7.04638086,24.7910635 L8.47587305,23.3086318 C9.7069375,23.3688076 13.6674941,23.8293936 15.2078164,27.2210732 C14.8202285,29.7206533 12.6719277,31.5769619 10.1150918,31.5769619 Z M11.5628652,35.947958 C10.7507461,36.7195791 9.47854883,36.7194521 8.66668359,35.9478311 L7.78118555,35.1063857 C7.93060937,34.8264541 8.01274805,34.5090713 8.01274805,34.1764541 L8.01274805,33.1615908 C8.6769668,33.3692861 9.38308008,33.4812588 10.1148379,33.4812588 C10.845707,33.4812588 11.5514395,33.3687783 12.2168008,33.1623525 L12.2166738,34.1763271 C12.2166738,34.5090713 12.2986855,34.8265811 12.4482363,35.1066396 L11.5628652,35.947958 Z M6.10832422,33.3710635 C4.32729883,32.7302041 3.43392969,31.8756826 3.0525625,31.4092568 C3.3125625,30.7295498 3.48115625,29.9510732 3.59528711,29.1293057 C4.12036523,30.3882998 4.99976953,31.462958 6.10832422,32.2297549 L6.10832422,33.3710635 Z M62.0942715,35.0528115 L58.1618984,33.9292764 C57.9921621,33.8806533 57.8735879,33.7236123 57.8735879,33.5468936 L57.8735879,32.2344521 C58.1935098,32.012665 58.4987051,31.7645986 58.7839688,31.4878408 C60.1664883,30.1460732 60.9278262,28.3466396 60.9278262,26.4205068 L60.9278262,24.6092666 L61.3080508,23.8489443 C61.7253457,23.0142275 61.9459902,22.0797256 61.9459902,21.1466201 L61.9459902,16.2398818 C61.9459902,15.714042 61.5195547,15.2877334 60.9938418,15.2877334 L51.831127,15.2877334 C48.4994961,15.2877334 45.788666,17.9984365 45.788666,21.3301943 L45.788666,21.3869424 C45.788666,22.1628799 45.9721133,22.93996 46.3190762,23.6338857 L46.8068301,24.6091396 L46.8068301,26.1643154 C46.8068301,28.6289834 48.0212637,30.8403799 49.8609414,32.1711025 L49.8611953,33.5466396 C49.8611953,33.7587783 49.8611953,33.8467568 49.0749746,34.0713369 L47.1562051,34.6196475 L41.6056875,32.6013467 C41.6256191,32.3394424 41.5372598,32.0730947 41.3461953,31.8723818 L39.5725332,30.0088369 L39.5725332,26.8808389 C39.760043,26.7263369 39.9448867,26.5676455 40.1240176,26.3998135 C42.3615664,24.3025479 43.6448086,21.3414932 43.6448086,18.2759561 L43.6448086,15.7777725 C44.3205801,14.3075283 44.6628457,12.7517178 44.6628457,11.1494424 L44.6628457,0.969071289 C44.6628457,0.443231445 44.2365371,0.0169228516 43.7106973,0.0169228516 L29.4577969,0.0169228516 C24.4418789,0.0169228516 20.3612246,4.0977041 20.3612246,9.11336816 L20.3612246,11.1496963 C20.3612246,12.7519717 20.7036172,14.3076553 21.3792617,15.7780264 L21.3792617,17.9274697 C21.3792617,21.4867275 22.9618594,24.6933096 25.4515371,26.807333 L25.4515371,30.0089639 L23.677875,31.8725088 C23.4868105,32.0732217 23.3984512,32.3395693 23.4183828,32.6014736 L17.5601309,34.7314932 C17.1355996,34.8858682 16.7411563,35.0950869 16.3830215,35.3483584 L15.4631191,34.8884072 C18.201498,33.6964443 19.0689687,32.0200283 19.1106094,31.9367471 C19.2446719,31.6686221 19.2446719,31.3531436 19.1106094,31.0851455 C18.4241738,29.7121475 18.3410195,27.1959365 18.2742422,25.1739541 C18.2520254,24.5009756 18.2309512,23.8650674 18.190707,23.2988564 C17.8660879,18.7318447 14.3941738,15.2877334 10.114584,15.2877334 C5.83499414,15.2877334 2.36295312,18.7317178 2.03846094,23.2988564 C1.9982168,23.8651943 1.97714258,24.5009756 1.95492578,25.174208 C1.88814844,27.1960635 1.80486719,29.7120205 1.11855859,31.0850186 C0.984496094,31.3530166 0.984496094,31.6686221 1.11855859,31.9366201 C1.16019922,32.0199014 2.02589258,33.6928896 4.76973047,34.8861221 L2.21454492,36.1637783 C0.848529297,36.847167 -2.5390625e-05,38.220292 -2.5390625e-05,39.7472842 L-2.5390625e-05,46.7816299 C-2.5390625e-05,47.3075967 0.426283203,47.7337783 0.952123047,47.7337783 C1.47796289,47.7337783 1.90427148,47.3075967 1.90427148,46.7816299 L1.90427148,39.7472842 C1.90427148,38.946083 2.34949609,38.225624 3.06614648,37.8672354 L6.24797266,36.2762588 L7.35475,37.3281924 C8.12865625,38.0636318 9.12142969,38.4311611 10.114584,38.4311611 C11.1074844,38.4311611 12.1007656,38.0633779 12.874418,37.3281924 L13.9810684,36.2763857 L15.0185293,36.7951162 C14.5300137,37.5768936 14.252748,38.4933682 14.252748,39.4536416 L14.252748,46.7818838 C14.252748,47.3078506 14.6790566,47.7340322 15.2048965,47.7340322 C15.7307363,47.7340322 16.1570449,47.3078506 16.1570449,46.7818838 L16.1570449,39.4536416 C16.1570449,38.1465322 16.9823672,36.9681533 18.2108926,36.5214053 L24.387416,34.2754775 L26.9585977,38.1324404 C27.2872793,38.6253994 27.8140078,38.9417666 28.4037051,39.000165 C28.4694668,39.0065127 28.5348477,39.0098135 28.6001016,39.0098135 C29.1203555,39.0098135 29.6186465,38.8049111 29.991127,38.4326846 L31.5597598,36.8639248 L31.5597598,46.7820107 C31.5597598,47.3079775 31.9860684,47.7341592 32.5119082,47.7341592 C33.037875,47.7341592 33.4640566,47.3079775 33.4640566,46.7820107 L33.4640566,36.8639248 L35.0326895,38.4326846 C35.405043,38.8050381 35.903334,39.0099404 36.4237148,39.0099404 C36.4888418,39.0099404 36.5543496,39.0066396 36.6199844,39.000165 C37.2098086,38.9418936 37.7365371,38.6255264 38.0652188,38.1325674 L40.6365273,34.2757314 L46.8129238,36.5216592 C48.0413223,36.9684072 48.8667715,38.1467861 48.8667715,39.4538955 L48.8667715,46.7821377 C48.8667715,47.3081045 49.2930801,47.7342861 49.8189199,47.7342861 C50.3447598,47.7342861 50.7710684,47.3081045 50.7710684,46.7821377 L50.7710684,39.4538955 C50.7710684,38.1300283 50.2452285,36.8884268 49.3627773,35.9700479 L49.5980215,35.9030166 C49.8352969,35.8352236 50.1590273,35.7422939 50.4840273,35.5829678 L52.9150527,38.0141201 L52.9150527,46.7821377 C52.9150527,47.3081045 53.3413613,47.7342861 53.8672012,47.7342861 C54.393041,47.7342861 54.8193496,47.3081045 54.8193496,46.7821377 L54.8193496,38.0141201 L57.2334902,35.5998525 C57.3618398,35.6652334 57.4966641,35.7203311 57.6385977,35.7608291 L61.5710977,36.8842373 C62.4686563,37.1408096 63.0956777,37.9719717 63.0956777,38.905458 L63.0956777,46.7821377 C63.0956777,47.3081045 63.5221133,47.7342861 64.0478262,47.7342861 C64.573666,47.7342861 64.9999746,47.3081045 64.9999746,46.7821377 L64.9999746,38.905458 C64.9999746,37.1259561 63.8050918,35.5415811 62.0942715,35.0528115 Z" id="Fill-3" fill="#FFFFFF" mask="url(#mask-4)"></path>
                                                    </g>
                                                    <path d="M59.9755635,39.8313398 C59.4497236,39.8313398 59.023415,40.2575215 59.023415,40.7834883 L59.023415,46.8917109 C59.023415,47.4176777 59.4497236,47.8438594 59.9755635,47.8438594 C60.5015303,47.8438594 60.9277119,47.4176777 60.9277119,46.8917109 L60.9277119,40.7834883 C60.9277119,40.2576484 60.5015303,39.8313398 59.9755635,39.8313398" id="Fill-6" fill="#FFFFFF"></path>
                                                    <path d="M5.02443652,41.0898389 C4.49859668,41.0898389 4.07228809,41.5161475 4.07228809,42.0419873 L4.07228809,46.8917236 C4.07228809,47.4176904 4.49859668,47.8438721 5.02443652,47.8438721 C5.55027637,47.8438721 5.97658496,47.4176904 5.97658496,46.8917236 L5.97658496,42.0419873 C5.97658496,41.5162744 5.55027637,41.0898389 5.02443652,41.0898389" id="Fill-8" fill="#FFFFFF"></path>
                                                    <path d="M40.3117051,11.6046709 C36.7105527,8.00351855 29.1760117,8.69198535 26.1034922,9.15511035 C25.1357285,9.30097949 24.4334238,10.1199541 24.4334238,11.1024443 L24.4334238,13.2959404 C24.4334238,13.8217803 24.8597324,14.2480889 25.3855723,14.2480889 C25.9114121,14.2480889 26.3377207,13.8217803 26.3377207,13.2959404 L26.3377207,11.1023174 C26.3377207,11.0699443 26.3590488,11.0422686 26.3874863,11.0379521 C27.6147422,10.8529814 30.050084,10.5675908 32.5732773,10.7358037 C35.542457,10.9334697 37.693043,11.6788115 38.9652402,12.9511357 C39.3370859,13.3229814 39.9399863,13.3229814 40.3117051,12.9511357 C40.6835508,12.57929 40.6835508,11.9763896 40.3117051,11.6046709" id="Fill-10" fill="#FFFFFF"></path>
                                                    <path d="M21.313373,41.8674268 C20.7875332,41.8674268 20.3612246,42.2937354 20.3612246,42.8195752 L20.3612246,46.8918506 C20.3612246,47.4178174 20.7875332,47.843999 21.313373,47.843999 C21.8392129,47.843999 22.2655215,47.4178174 22.2655215,46.8918506 L22.2655215,42.8195752 C22.2655215,42.2938623 21.8392129,41.8674268 21.313373,41.8674268" id="Fill-12" fill="#FFFFFF"></path>
                                                    <path d="M43.7106846,41.8674268 C43.1848447,41.8674268 42.7585361,42.2937354 42.7585361,42.8195752 L42.7585361,46.8918506 C42.7585361,47.4178174 43.1848447,47.843999 43.7106846,47.843999 C44.2366514,47.843999 44.662833,47.4178174 44.662833,46.8918506 L44.662833,42.8195752 C44.662833,42.2938623 44.2366514,41.8674268 43.7106846,41.8674268" id="Fill-14" fill="#FFFFFF"></path>
                                                </g>
                                            </g>
                                        </g>
                                    </g>
                                </g>
                            </g>
                        </g>
                    </g>
                </g>
            </g>
        </g>
    </g>
</svg>