<?xml version="1.0" encoding="UTF-8"?>
<svg width="65px" height="65px" viewBox="0 0 65 65" version="1.1" xmlns="http://www.w3.org/2000/svg" xmlns:xlink="http://www.w3.org/1999/xlink">
    <!-- Generator: Sketch 49.3 (51167) - http://www.bohemiancoding.com/sketch -->
    <title>Page 1</title>
    <desc>Created with Sketch.</desc>
    <defs>
        <polygon id="path-1" points="1.26953125e-05 0.0716239095 65 0.0716239095 65 52.6582278 1.26953125e-05 52.6582278"></polygon>
    </defs>
    <g id="Page-1" stroke="none" stroke-width="1" fill="none" fill-rule="evenodd">
        <g id="Desktop-HD-Copy-13" transform="translate(-760.000000, -981.000000)">
            <g id="Group-11" transform="translate(0.000000, 729.000000)">
                <g id="Group-44" transform="translate(760.000000, 252.000000)">
                    <g id="Page-1">
                        <path d="M22.6762373,42.3225853 C22.4468038,42.093037 22.1283861,41.9620253 21.8037975,41.9620253 C21.4790854,41.9620253 21.1607911,42.0931605 20.9312342,42.3225853 C20.7016772,42.5534919 20.5696203,42.8720689 20.5696203,43.1955851 C20.5696203,43.5215709 20.7015538,43.8389131 20.9312342,44.0687084 C21.1607911,44.2994915 21.4790854,44.4303797 21.8037975,44.4303797 C22.1283861,44.4303797 22.4468038,44.2994915 22.6762373,44.0687084 C22.9057943,43.8389131 23.0379747,43.5214474 23.0379747,43.1955851 C23.0379747,42.8720689 22.9059177,42.5534919 22.6762373,42.3225853" id="Fill-1" fill="#E94280"></path>
                        <g id="Group-5" transform="translate(0.000000, 12.341772)">
                            <mask id="mask-2" fill="white">
                                <use xlink:href="#path-1"></use>
                            </mask>
                            <g id="Clip-4"></g>
                            <path d="M59.6147881,33.6662703 L56.6405303,33.6662703 L50.8100811,33.6662703 L46.5570244,33.6662703 C45.8559893,33.6662703 45.2874932,34.2344716 45.2874932,34.9351433 C45.2874932,35.635688 45.8559893,36.2040162 46.5570244,36.2040162 L50.8100811,36.2040162 L56.6405303,36.2040162 C58.2099248,36.2040162 59.4866924,37.4801218 59.4866924,39.0487025 C59.4866924,40.6172833 58.2099248,41.8933888 56.6405303,41.8933888 L53.4411846,41.8933888 L46.9895537,41.8933888 L46.5571514,41.8933888 C45.8561162,41.8933888 45.2876201,42.4614632 45.2876201,43.1622618 C45.2876201,43.8628065 45.8561162,44.4311347 46.5571514,44.4311347 L46.9895537,44.4311347 L53.4411846,44.4311347 C55.0105791,44.4311347 56.2873467,45.7072403 56.2873467,47.275821 C56.2873467,48.8444018 55.0105791,50.1205073 53.4411846,50.1205073 L31.2580303,50.1205073 C29.1280107,50.1205073 27.0424248,49.7262685 25.0591631,48.9489569 L22.903626,48.1041413 L22.903626,35.6553556 C22.903626,34.954557 22.3351299,34.3864826 21.6340947,34.3864826 C20.9330596,34.3864826 20.3645635,34.954557 20.3645635,35.6553556 L20.3645635,48.5323859 C20.3645635,49.4079083 19.6519756,50.1202535 18.7758721,50.1202535 L2.5390752,50.1205073 L2.5390752,19.7495255 L18.7758721,19.7495255 C19.6518486,19.7495255 20.3645635,20.4617438 20.3645635,21.3373931 L20.3645635,25.6458512 C20.3645635,26.346396 20.9330596,26.9147242 21.6340947,26.9147242 C22.3351299,26.9147242 22.903626,26.346396 22.903626,25.6458512 L22.903626,21.3526196 L26.8134014,19.2245927 C29.9226104,17.5325506 32.2982842,14.768184 33.5029424,11.4405646 L36.5929814,2.90511002 L37.6672588,3.23146415 C39.2400811,3.70944859 40.5205303,4.7770783 41.2727275,6.23793174 C42.0253057,7.69878518 42.1506084,9.36075498 41.6259111,10.917789 L39.2138018,18.0753745 C39.0832939,18.4626345 39.1474053,18.8888489 39.3856963,19.2206592 C39.6242412,19.5524695 40.0080205,19.7492717 40.4168096,19.7492717 L56.3113408,19.7492717 C57.8807354,19.7492717 59.157376,21.0253772 59.157376,22.5938311 C59.157376,24.1625387 57.8807354,25.4386443 56.3113408,25.4386443 L46.5570244,25.4386443 C45.8559893,25.4386443 45.2874932,26.0068456 45.2874932,26.7075172 C45.2874932,27.4081889 45.8559893,27.9763902 46.5570244,27.9763902 L50.8027178,27.9763902 C50.8052568,27.9763902 50.8076689,27.9767708 50.8100811,27.9767708 L59.6147881,27.9767708 C61.1841826,27.9767708 62.4609502,29.2528764 62.4609502,30.8214571 C62.4609502,32.3901648 61.1841826,33.6662703 59.6147881,33.6662703 M65.0000127,30.8217109 C65.0000127,28.259222 63.1984209,26.1106394 60.7950713,25.5711146 C61.3640752,24.7179244 61.6964385,23.6941977 61.6964385,22.5942117 C61.6964385,19.6263179 59.2807744,17.2117795 56.3113408,17.2117795 L42.1839971,17.2117795 L44.0320537,11.7280913 C44.7779033,9.51504993 44.5996611,7.15278914 43.530335,5.07653232 C42.4610088,3.00040238 40.6410088,1.48283032 38.4057451,0.803602623 L36.1784795,0.126912673 C35.5311455,-0.0698895226 34.8450908,0.274482599 34.6153057,0.909172853 L31.115335,10.5772235 C30.1219268,13.3211613 28.1629131,15.6006915 25.5990947,16.9959442 L22.1026787,18.8989999 C21.3506084,17.8767959 20.1397295,17.2119064 18.7758721,17.2119064 L1.26954395,17.2119064 C0.568508789,17.2119064 1.26953125e-05,17.7801077 1.26953125e-05,18.4807794 L1.26953125e-05,51.3892534 C1.26953125e-05,52.089925 0.568508789,52.6581263 1.26954395,52.6581263 L18.7758721,52.6581263 C20.2946123,52.6581263 21.6234307,51.8334858 22.340208,50.6091503 L24.1321514,51.3115984 C26.4119756,52.2051387 28.8094854,52.6582532 31.2580303,52.6582532 L53.4411846,52.6582532 C56.4106182,52.6582532 58.8264092,50.243588 58.8264092,47.275821 C58.8264092,46.1669529 58.4889678,45.135613 57.9117119,44.2782355 C60.2694854,43.7055932 62.0257549,41.5787083 62.0257549,39.0487025 C62.0257549,37.9180098 61.6743486,36.8680174 61.0760186,36.0008697 C63.3373076,35.3627535 65.0000127,33.2831976 65.0000127,30.8217109" id="Fill-3" fill="#E94280" mask="url(#mask-2)"></path>
                        </g>
                        <path d="M14.3987342,57.4196171 C13.8148892,57.4196171 13.3398294,56.9445488 13.3398294,56.3606934 C13.3398294,55.776838 13.8148892,55.3019019 14.3987342,55.3019019 C14.9825792,55.3019019 15.4576389,55.776838 15.4576389,56.3606934 C15.4576389,56.9445488 14.9825792,57.4196171 14.3987342,57.4196171 M14.3987342,52.6582278 C12.3571933,52.6582278 10.6962025,54.3191161 10.6962025,56.3606934 C10.6962025,58.4024029 12.3570611,60.0632911 14.3987342,60.0632911 C16.4404072,60.0632911 18.1012658,58.4025351 18.1012658,56.3606934 C18.1012658,54.3192483 16.440275,52.6582278 14.3987342,52.6582278" id="Fill-6" fill="#E94280"></path>
                        <path d="M39.1319335,0.361613924 C38.9023766,0.132056962 38.5842057,0 38.2594937,0 C37.9349051,0 37.6164873,0.131933544 37.3869304,0.361613924 C37.1573734,0.591170886 37.0253165,0.909588608 37.0253165,1.23417722 C37.0253165,1.55876582 37.15725,1.87718354 37.3869304,2.10661709 C37.6164873,2.33629747 37.9349051,2.46835443 38.2594937,2.46835443 C38.5842057,2.46835443 38.9025,2.33629747 39.1319335,2.10661709 C39.3614905,1.87718354 39.4936709,1.55876582 39.4936709,1.23417722 C39.4936709,0.909588608 39.3616139,0.591170886 39.1319335,0.361613924" id="Fill-8" fill="#E94280"></path>
                        <path d="M38.2594937,4.93670886 C37.577981,4.93670886 37.0253165,5.51845228 37.0253165,6.23582324 L37.0253165,9.39708816 C37.0253165,10.1144591 37.577981,10.6962025 38.2594937,10.6962025 C38.9408829,10.6962025 39.4936709,10.1144591 39.4936709,9.39708816 L39.4936709,6.23582324 C39.4936709,5.51845228 38.9410063,4.93670886 38.2594937,4.93670886" id="Fill-10" fill="#E94280"></path>
                        <path d="M54.6396173,16.4556962 L46.5629143,16.4556962 C45.8396705,16.4556962 45.2531646,17.0082373 45.2531646,17.6898734 C45.2531646,18.3713861 45.8396705,18.9240506 46.5629143,18.9240506 L54.6396173,18.9240506 C55.3628611,18.9240506 55.9493671,18.3713861 55.9493671,17.6898734 C55.9493671,17.0083608 55.3628611,16.4556962 54.6396173,16.4556962" id="Fill-12" fill="#E94280"></path>
                        <path d="M29.1333042,16.4556962 L21.0565692,16.4556962 C20.3333342,16.4556962 19.7468354,17.0083608 19.7468354,17.6898734 C19.7468354,18.3713861 20.3332032,18.9240506 21.0565692,18.9240506 L29.1333042,18.9240506 C29.8565392,18.9240506 30.443038,18.3713861 30.443038,17.6898734 C30.443038,17.0083608 29.8565392,16.4556962 29.1333042,16.4556962" id="Fill-14" fill="#E94280"></path>
                        <path d="M31.6961073,10.0538223 L27.7942222,6.15189745 C27.2707545,5.62869241 26.4224312,5.62869241 25.8988294,6.15189745 C25.3754957,6.6752365 25.3754957,7.52383646 25.8988294,8.04730953 L29.8008485,11.9492344 C30.0625824,12.2108369 30.4055302,12.3417722 30.7484779,12.3417722 C31.0914257,12.3417722 31.4343734,12.2108369 31.6961073,11.9492344 C32.219441,11.4258953 32.219441,10.5772953 31.6961073,10.0538223" id="Fill-16" fill="#E94280"></path>
                        <path d="M49.7973731,6.15189745 C49.2739054,5.62869241 48.4255821,5.62869241 47.9019803,6.15189745 L44.0000952,10.0538223 C43.4767615,10.5771613 43.4767615,11.4257613 44.0000952,11.9492344 C44.2618291,12.2108369 44.6047769,12.3417722 44.9477246,12.3417722 C45.2909404,12.3417722 45.6337541,12.2108369 45.895488,11.9492344 L49.7973731,8.04730953 C50.3207068,7.52397048 50.3207068,6.67537051 49.7973731,6.15189745" id="Fill-18" fill="#E94280"></path>
                    </g>
                </g>
            </g>
        </g>
    </g>
</svg>